<?xml version="1.0" encoding="UTF-8" standalone="no"?>
<!-- Created with Inkscape (http://www.inkscape.org/) -->

<svg
   xmlns:dc="http://purl.org/dc/elements/1.1/"
   xmlns:cc="http://creativecommons.org/ns#"
   xmlns:rdf="http://www.w3.org/1999/02/22-rdf-syntax-ns#"
   xmlns:svg="http://www.w3.org/2000/svg"
   xmlns="http://www.w3.org/2000/svg"
   xmlns:sodipodi="http://sodipodi.sourceforge.net/DTD/sodipodi-0.dtd"
   xmlns:inkscape="http://www.inkscape.org/namespaces/inkscape"
   width="210mm"
   height="210mm"
   viewBox="0 0 744.09449 744.09448"
   id="svg6444"
   version="1.1"
   inkscape:version="0.91 r13725"
   sodipodi:docname="corner_top_left_white.svg">
  <defs
     id="defs6446" />
  <sodipodi:namedview
     id="base"
     pagecolor="#ffffff"
     bordercolor="#666666"
     borderopacity="1.0"
     inkscape:pageopacity="0.0"
     inkscape:pageshadow="2"
     inkscape:zoom="0.35"
     inkscape:cx="-213.57143"
     inkscape:cy="520"
     inkscape:document-units="px"
     inkscape:current-layer="layer1"
     showgrid="false"
     inkscape:window-width="1600"
     inkscape:window-height="870"
     inkscape:window-x="0"
     inkscape:window-y="0"
     inkscape:window-maximized="1" />
  <metadata
     id="metadata6449">
    <rdf:RDF>
      <cc:Work
         rdf:about="">
        <dc:format>image/svg+xml</dc:format>
        <dc:type
           rdf:resource="http://purl.org/dc/dcmitype/StillImage" />
        <dc:title></dc:title>
      </cc:Work>
    </rdf:RDF>
  </metadata>
  <g
     inkscape:label="Capa 1"
     inkscape:groupmode="layer"
     id="layer1"
     transform="translate(0,-308.26774)">
    <path
       d="m 321.98904,513.89139 c -5.85397,0.31147 -11.60804,0.99847 -17.23919,2.0374 l -5.22096,-21.57977 -14.07151,3.40463 5.21846,21.57125 c -4.97958,1.49229 -9.83817,3.26603 -14.55622,5.30285 l -9.87027,-19.88306 -12.96752,6.43759 9.8759,19.89544 c -4.50434,2.55464 -8.84685,5.36208 -13.00759,8.40376 l -14.0504,-17.22679 -11.21913,9.15057 14.05756,17.23628 c -3.81851,3.47626 -7.43646,7.16913 -10.83257,11.06079 l -17.52645,-13.69324 -8.91326,11.40904 17.52084,13.68859 c -2.95204,4.22249 -5.66986,8.62153 -8.12887,13.18027 l -20.10238,-9.45952 -6.16426,13.10012 20.08979,9.45352 c -1.93634,4.75754 -3.6075,9.65175 -4.99409,14.66346 l -21.68312,-4.76723 -3.10865,14.14002 21.69048,4.76878 c -0.82348,5.04538 -1.36529,10.18562 -1.60669,15.40426 l -22.2207,0.15486 0.10144,14.47743 22.21489,-0.15487 c 0.31359,5.21322 0.92568,10.34631 1.81846,15.38259 l -21.61345,5.0692 3.3063,14.09511 21.60435,-5.06706 c 1.45782,4.9908 3.1973,9.86119 5.20102,14.59318 l -19.94887,9.72994 6.3468,13.01244 19.96107,-9.73556 c 2.52347,4.52293 5.30033,8.88537 8.31258,13.06721 l -17.32126,13.9267 9.07218,11.28322 17.32939,-13.93329 c 3.44992,3.84328 7.1186,7.48601 10.98645,10.90923 l -13.81228,17.42695 11.34631,8.99262 13.80417,-17.4167 c 4.20216,2.98263 8.58474,5.72832 13.12625,8.21927 l -9.59638,20.0294 13.05696,6.25564 9.59345,-20.0236 c 4.74497,1.96946 9.62561,3.67855 14.62726,5.10037 l -4.91783,21.64557 14.11834,3.20738 4.92054,-21.65854 c 5.04074,0.85831 10.17614,1.43963 15.39226,1.71702 l 0,22.22012 14.47801,0 0,-22.22012 c 5.85377,-0.31147 11.60823,-0.99808 17.23938,-2.03701 l 5.22038,21.5786 14.0713,-3.40425 -5.21826,-21.57046 c 4.97997,-1.49248 9.83836,-3.26565 14.5568,-5.30284 l 9.86971,19.88208 12.96733,-6.43701 -9.87571,-19.89506 c 4.50473,-2.55502 8.84743,-5.36247 13.00817,-8.40414 l 14.04982,17.22602 11.21875,-9.1498 -14.05698,-17.23628 c 3.8183,-3.47683 7.43703,-7.16913 10.83295,-11.06099 l 17.52607,13.69247 8.91286,-11.40807 -17.52026,-13.68859 c 2.95166,-4.22327 5.66948,-8.62153 8.12849,-13.18066 l 20.10258,9.45914 6.16406,-13.09935 -20.0898,-9.45391 c 1.93519,-4.75832 3.60751,-9.65155 4.9941,-14.66384 l 21.68293,4.76741 3.10884,-14.13943 -21.69067,-4.76916 c 0.82115,-5.04636 1.3651,-10.18602 1.60669,-15.40446 l 22.22049,-0.15486 -0.1009,-14.47685 -22.21528,0.15487 c -0.31379,-5.21361 -0.92568,-10.34631 -1.81845,-15.3824 l 21.61344,-5.06959 -3.3061,-14.09453 -21.60473,5.06708 c -1.45764,-4.9912 -3.19712,-9.86198 -5.20084,-14.59377 l 19.94869,-9.72996 -6.34642,-13.01184 -19.96069,9.73498 c -2.52347,-4.52293 -5.30072,-8.88538 -8.31296,-13.06722 l 17.32068,-13.9267 -9.07121,-11.28262 -17.329,13.9327 c -3.45071,-3.84328 -7.11918,-7.4864 -10.98723,-10.90962 l 13.8117,-17.42656 -11.34534,-8.99243 -13.80437,17.41651 c -4.20294,-2.98205 -8.58493,-5.72833 -13.12683,-8.21928 l 9.59619,-20.0292 -13.05598,-6.25525 -9.59388,20.02359 c -4.74554,-1.96906 -9.6258,-3.67854 -14.62764,-5.10036 l 4.91764,-21.64558 -14.11757,-3.20737 -4.92111,21.65854 c -5.04152,-0.85677 -10.17615,-1.43963 -15.39227,-1.71702 l 0,-22.22011 -14.47723,0 0,22.22011 z m -56.68144,189.53773 -5.33324,5.33324 -4.21243,4.21244 c -14.13401,-15.94223 -23.16302,-36.51326 -24.51244,-59.15246 l 5.96817,0 7.54194,0 70.15478,0 -49.60678,49.60678 z m -1.16107,17.93027 4.21242,-4.21244 5.33284,-5.33323 49.60718,-49.60718 0,70.15498 0,7.54215 0,5.96817 c -22.63902,-1.34982 -43.21082,-10.37786 -59.15244,-24.51245 z m 79.394,-79.39442 59.15246,-59.15246 c 14.13363,15.94242 23.16263,36.51345 24.51245,59.15246 l -83.66491,0 z m 50.76787,-67.53627 -59.15208,59.15168 0,-83.66453 c 22.63882,1.35001 43.21044,10.37824 59.15208,24.51285 z m -59.15208,171.44952 0,-5.97455 0,-7.54195 0,-70.15518 59.15401,59.1542 c -15.9426,14.13634 -36.51421,23.16728 -59.15401,24.51748 z m -11.85735,-195.96875 0,83.67091 -49.6068,-49.6068 -5.33322,-5.33303 -4.21358,-4.21379 c 15.94259,-14.13653 36.5138,-23.16709 59.1536,-24.51729 z m -67.53955,32.90053 4.21494,4.21514 5.33324,5.33265 49.60716,49.60718 -70.15477,0 -7.54233,0 -5.96817,0 c 1.3498,-22.63843 10.37629,-43.21198 24.50993,-59.15497 z m 146.93647,130.1677 -59.15498,-59.15536 83.66453,0 c -1.34982,22.63842 -10.37553,43.21236 -24.50955,59.15536 z"
       style="fill:#ffffff;fill-rule:evenodd"
       id="path375"
       inkscape:connector-curvature="0" />
    <path
       d="m 673.79145,486.72422 -6.78177,15.80633 c -4.36883,0.83606 -8.56693,2.19923 -12.52035,4.02524 l -14.72153,-8.90821 -13.93792,11.8198 6.38396,15.97919 c -2.44738,3.6017 -4.47723,7.52124 -6.01617,11.69438 l -16.70201,4.10905 -1.49751,18.21327 15.80652,6.78196 c 0.83587,4.36884 2.19923,8.56674 4.02524,12.52017 l -8.9084,14.72172 11.81999,13.93773 15.97919,-6.38397 c 3.60169,2.44759 7.52124,4.47744 11.69437,6.01637 l 4.10906,16.70201 18.21327,1.4975 6.78196,-15.80652 c 4.36885,-0.83606 8.56694,-2.19941 12.52017,-4.02543 l 14.72153,8.90842 13.93772,-11.82001 -6.38396,-15.97881 c 2.44758,-3.60169 4.47743,-7.52162 6.01656,-11.69475 l 16.70181,-4.10887 1.49751,-18.21325 -15.80633,-6.78198 c -0.83606,-4.36883 -2.19941,-8.56674 -4.02543,-12.52035 l 8.90822,-14.72133 -11.81981,-13.93793 -15.979,6.38397 c -3.6015,-2.44759 -7.52143,-4.47724 -11.69456,-6.01637 l -4.10886,-16.70182 -18.21347,-1.49751 z m 7.19565,23.99173 c -25.00026,-2.05559 -46.94143,16.5516 -48.99702,41.55187 -2.0556,25.00007 16.55159,46.94144 41.55185,48.99703 25.00008,2.05559 46.94145,-16.55161 48.99704,-41.55187 2.05559,-25.00007 -16.5518,-46.94143 -41.55187,-48.99703 z m -0.22339,2.71724 c -23.49985,-1.93228 -44.12411,15.55817 -46.0564,39.05801 -1.93228,23.49986 15.55817,44.12413 39.05802,46.05641 23.49965,1.93209 44.12411,-15.55817 46.0562,-39.05802 1.93228,-23.49985 -15.55816,-44.12411 -39.05782,-46.0564 z m -1.51938,18.4775 c -13.29661,-1.09333 -24.96639,8.80311 -26.05971,22.09971 -1.09333,13.29679 8.80309,24.96638 22.09989,26.05971 13.2968,1.09332 24.9664,-8.8031 26.05972,-22.09971 1.09332,-13.2968 -8.8031,-24.96639 -22.0999,-26.05971 z"
       style="fill:#ffffff;fill-rule:evenodd"
       id="path381"
       inkscape:connector-curvature="0" />
    <path
       d="m 518.91695,475.50218 c -12.14442,1.24528 -22.74006,7.72468 -29.49241,17.1455 l -17.56923,-10.14362 c 10.33371,-15.43254 27.43895,-25.94899 47.06164,-27.29473 l 0,20.29285 z m 38.06052,17.1455 17.56904,-10.14324 c -10.3343,-15.43117 -27.43895,-25.94686 -47.06126,-27.29261 l 0,20.28958 c 12.14444,1.24547 22.7391,7.72604 29.49222,17.14627 z m 21.83141,-2.71047 -17.58453,10.15253 c 2.25479,5.11663 3.508,10.7741 3.508,16.72388 0,6.12401 -1.32696,11.93808 -3.70776,17.17221 l 17.56749,10.14305 c 4.07015,-8.23592 6.36132,-17.50788 6.36132,-27.31526 0,-9.63335 -2.20813,-18.75101 -6.14452,-26.87641 z m -89.09494,51.43919 -17.58336,10.15157 c 10.36101,15.20914 27.33673,25.55389 46.78637,26.88744 l 0,-20.28957 c -11.97272,-1.22766 -22.43866,-7.54446 -29.20301,-16.74944 z m -21.90438,2.75286 17.56885,-10.14381 c -2.3812,-5.23335 -3.70856,-11.04782 -3.70856,-17.17183 0,-5.94978 1.25419,-11.60609 3.50878,-16.7233 l -17.58627,-10.15388 c -3.93561,8.12617 -6.14355,17.24422 -6.14355,26.87718 0,9.80738 2.28963,19.07991 6.36075,27.31564 z m 59.67569,13.99639 0,20.29228 c 19.45042,-1.33355 36.42789,-11.67773 46.78792,-26.88919 l -17.5849,-10.15234 c -6.76397,9.20536 -17.23048,15.5212 -29.20302,16.74925 z m -9.08244,-126.68642 c -2.43113,0.13357 -4.83439,0.37302 -7.20725,0.70656 l 2.66982,13.4234 -9.41113,1.87208 -2.67195,-13.4321 c -2.35099,0.60647 -4.66016,1.31593 -6.92831,2.1127 l 5.23645,12.64289 -8.86486,3.67215 -5.23238,-12.63167 c -2.17832,1.05441 -4.30225,2.20252 -6.37275,3.43135 l 7.58358,11.3498 -7.97808,5.33092 -7.57002,-11.32871 c -1.92377,1.4559 -3.78385,2.99116 -5.5758,4.60074 l 9.62078,9.62077 -6.78488,6.78508 -9.60412,-9.60374 c -1.59991,1.79735 -3.12839,3.65957 -4.57403,5.58798 l 11.28515,7.5406 -5.33091,7.97846 -11.26734,-7.5284 c -1.21586,2.06933 -2.34945,4.19269 -3.39186,6.36829 l 12.50972,5.18167 -3.67235,8.86524 -12.48339,-5.17102 c -0.78321,2.25963 -1.47563,4.56126 -2.0705,6.90257 l 13.2304,2.63206 -1.87208,9.41113 -13.18762,-2.62315 c -0.3225,2.35834 -0.55092,4.74592 -0.67848,7.16079 l 13.41914,1.9e-4 0,9.59561 -13.38353,0 c 0.1415,2.41003 0.38328,4.79316 0.71992,7.1455 l 13.11057,-2.60767 1.87208,9.41113 -13.09257,2.60419 c 0.60687,2.32698 1.31265,4.61313 2.10593,6.85843 l 12.31013,-5.09901 3.67235,8.86524 -12.28227,5.0874 c 1.04745,2.15354 2.1853,4.25482 3.40348,6.30267 l 11.02827,-7.3687 5.33111,7.97866 -10.99944,7.34934 c 1.44157,1.9019 2.96076,3.74145 4.55293,5.51404 l 9.33893,-9.33893 6.78546,6.78546 -9.3219,9.32188 c 1.77782,1.58269 3.6199,3.09433 5.52566,4.52622 l 7.32069,-10.95568 7.97885,5.3313 -7.31353,10.94561 c 2.04669,1.20483 4.14507,2.33126 6.29609,3.36631 l 5.03842,-12.16283 8.86582,3.67215 -5.033,12.15121 c 2.23679,0.77954 4.51383,1.47391 6.83056,2.06838 l 2.56509,-12.8959 9.41209,1.87208 -2.56102,12.8748 c 2.33763,0.32463 4.7043,0.55847 7.09788,0.69146 l 0,-13.11948 9.59658,0 0,13.11948 c 2.39339,-0.1355 4.76084,-0.36606 7.09827,-0.69146 l -2.56083,-12.8748 9.41133,-1.87208 2.56509,12.8959 c 2.3173,-0.59447 4.59435,-1.28884 6.83152,-2.06838 l -5.033,-12.15121 8.86485,-3.67215 5.03842,12.16321 c 2.15142,-1.03486 4.24959,-2.16186 6.29668,-3.36707 l -7.31354,-10.94561 7.97809,-5.33092 7.32108,10.95607 c 1.90614,-1.4315 3.74861,-2.94392 5.52583,-4.5268 l -9.32169,-9.32189 6.78468,-6.78526 9.33892,9.33893 c 1.59256,-1.77259 3.11214,-3.61214 4.55332,-5.51404 l -10.99924,-7.34973 5.33112,-7.97827 11.02827,7.3687 c 1.21837,-2.04785 2.35602,-4.14913 3.40327,-6.30267 l -12.28207,-5.08759 3.67215,-8.86524 12.31014,5.0992 c 0.79367,-2.24472 1.49945,-4.53183 2.10593,-6.85843 l -13.09258,-2.60438 1.87208,-9.41133 13.11059,2.60768 c 0.33759,-2.35235 0.57685,-4.73566 0.7199,-7.14512 l -13.38351,-3.9e-4 0,-9.59541 13.41913,0 c -0.12563,-2.41525 -0.35637,-4.80264 -0.67887,-7.16079 l -13.18724,2.62296 -1.87208,-9.41132 13.23059,-2.63168 c -0.59428,-2.34131 -1.28767,-4.64294 -2.07069,-6.90257 l -12.48339,5.17064 -3.67215,-8.86525 12.50952,-5.18128 c -1.04163,-2.1756 -2.17619,-4.29875 -3.39185,-6.36829 l -11.26714,7.5284 -5.33131,-7.97885 11.28515,-7.54021 c -1.44544,-1.92841 -2.97353,-3.79101 -4.57384,-5.58798 l -9.60374,9.60374 -6.78544,-6.78546 9.62038,-9.62039 c -1.79156,-1.60958 -3.65164,-3.14484 -5.57521,-4.60035 l -7.56963,11.32832 -7.97885,-5.33111 7.58376,-11.34961 c -2.07012,-1.22883 -4.19423,-2.37694 -6.37217,-3.43135 l -5.23238,12.63167 -8.86602,-3.67215 5.23703,-12.6431 c -2.26794,-0.79714 -4.57713,-1.5064 -6.92792,-2.11249 l -2.67175,13.4321 -9.41209,-1.87208 2.67019,-13.4234 c -2.37287,-0.33354 -4.77612,-0.57221 -7.20706,-0.70656 l 0,13.68299 -9.59658,0 0,-13.68299 z m 4.79839,53.44543 c -17.63137,0 -31.92916,14.29779 -31.92916,31.92896 0,17.63138 14.29779,31.92916 31.92916,31.92916 17.63118,0 31.92897,-14.29778 31.92897,-31.92916 0,-17.63117 -14.29779,-31.92896 -31.92897,-31.92896 z"
       style="fill:#ffffff;fill-rule:evenodd"
       id="path383"
       inkscape:connector-curvature="0" />
    <path
       d="m 520.46073,615.35453 -5.54172,3.19945 -5.54133,3.19924 -11.66959,-6.73744 -9.87049,17.09593 11.66959,6.73745 0,6.39907 0,6.39869 -11.66978,6.73764 9.87029,17.09593 11.66979,-6.73763 5.54152,3.19943 5.54172,3.19944 0,13.47528 19.74039,0 0,-13.47528 5.54192,-3.19944 5.54191,-3.19963 11.66959,6.73744 9.8701,-17.09574 -11.66998,-6.73744 0,-6.39869 0,-6.39907 11.6696,-6.73745 -9.8701,-17.09574 -11.66959,6.73745 -5.54153,-3.19944 -5.54192,-3.19945 0,-13.47507 -19.74039,0 0,13.47507 z m 9.8703,9.51683 -8.82343,5.09436 -8.82324,5.09398 0,10.18853 0,10.18834 8.82324,5.09398 8.82343,5.09436 8.82323,-5.09436 8.82343,-5.09398 0,-10.18834 0,-10.18853 -8.82343,-5.09398 -8.82323,-5.09436 z"
       style="fill:#ffffff;fill-rule:evenodd"
       id="path385"
       inkscape:connector-curvature="0" />
    <path
       d="m 109.62685,320.08799 127.68507,0 443.32907,0 c 28.35281,0 51.54992,18.38787 51.54992,46.7407 l 0,0 c 0,28.35223 -22.90383,55.71878 -51.23555,56.78888 -314.78356,11.89336 -387.46317,50.18327 -460.8139,127.03272 -78.00162,81.72023 -100.06339,181.95378 -108.13575,437.94919 -0.89335,28.33732 -23.197479,51.55012 -51.549909,51.55012 l 0,0 c -28.35282,0 -55.5579302,-23.1973 -55.5579302,-51.55012 l 0,-443.32908 0,-127.68527 0,-97.49714 104.7289792,0 z M 38.395381,886.14173 c 10.89258,-10.89276 28.55938,-10.89276 39.45196,0 10.89276,10.89257 10.89276,28.55937 0,39.45195 -10.89258,10.89277 -28.55938,10.89277 -39.45196,0 -10.89276,-10.89258 -10.89276,-28.55938 0,-39.45195 z m 19.72627,-4.66501 c 13.46773,0 24.39011,10.92258 24.39011,24.39127 0,13.46774 -10.92238,24.39012 -24.39011,24.39012 -13.46869,0 -24.39127,-10.92238 -24.39127,-24.39012 0,-13.46869 10.92258,-24.39127 24.39127,-24.39127 z m -12.46946,8.84763 c 7.82342,-6.29163 19.29847,-5.8075 26.55935,1.45318 7.26067,7.26088 7.74481,18.73593 1.45318,26.55933 l -28.01253,-28.01251 z m 24.93832,31.08671 c -7.8234,6.29164 -19.29845,5.8075 -26.55933,-1.45319 -7.26067,-7.26086 -7.74481,-18.73592 -1.45318,-26.55933 l 28.01251,28.01252 z m -8.56286,22.59759 c 18.20513,0 32.96905,14.76372 32.96905,32.96886 0,18.20513 -14.76392,32.96909 -32.96905,32.96909 -18.20494,0 -32.96886,-14.76396 -32.96886,-32.96909 0,-18.20514 14.76392,-32.96886 32.96886,-32.96886 z m 0,19.20166 c 7.60234,0 13.76738,6.16504 13.76738,13.7672 0,7.60234 -6.16504,13.76738 -13.76738,13.76738 -7.60216,0 -13.7672,-6.16504 -13.7672,-13.76738 0,-7.60216 6.16504,-13.7672 13.7672,-13.7672 z M 633.93727,375.05377 c 0,-18.20494 14.76391,-32.96886 32.96904,-32.96886 18.20495,0 32.96886,14.76392 32.96886,32.96886 0,18.20513 -14.76391,32.96904 -32.96886,32.96904 -18.20513,0 -32.96904,-14.76391 -32.96904,-32.96904 z m 19.20167,0 c 0,-7.60216 6.16503,-13.76719 13.76737,-13.76719 7.60215,0 13.76719,6.16503 13.76719,13.76719 0,7.60235 -6.16504,13.76738 -13.76719,13.76738 -7.60234,0 -13.76737,-6.16503 -13.76737,-13.76738 z M 98.293121,710.13792 c -11.36297,2.30144 -23.44042,1.95765 -34.03895,-0.37399 -10.89568,-2.39648 -22.35504,-7.35941 -31.91019,-14.54789 l 0,138.74568 c 0,15.69638 12.84228,28.53866 28.53885,28.53866 l 0,0 c 15.69599,0 28.57757,-12.84364 28.53827,-28.53866 -0.10976,-44.1907 2.4923,-85.70618 8.87202,-123.8238 z m -65.94914,-42.32559 c 6.05973,10.65661 19.27407,19.79943 35.83999,23.44333 12.51901,2.75421 24.59568,1.84944 34.027719,-1.83957 3.92594,-18.52259 8.85634,-36.15261 14.92808,-52.79772 20.37241,-55.85216 49.14975,-99.28501 78.14486,-122.83151 30.0352,-34.64001 93.86795,-76.51341 185.51945,-97.24666 4.92131,-7.45736 8.44306,-17.08529 9.67847,-27.83675 1.93499,-16.8348 -2.20562,-32.3076 -10.03,-41.70207 l -221.66046,0 -70.687889,0 -55.76022,0 0,56.63827 0,70.68791 0,193.48477 z M 402.70286,347.00138 c 6.32436,13.53721 8.21037,29.77657 6.59168,43.86356 -0.79056,6.87875 -2.51263,14.06413 -5.14198,20.98064 35.00936,-5.68149 71.51854,-7.93511 120.1288,-9.90108 15.68322,0.62061 27.92909,-10.70828 27.92909,-26.40428 l 0,0 c 0,-15.69657 -12.84229,-28.53884 -28.53886,-28.53884 l -120.96873,0 z"
       style="fill:#ffffff;fill-rule:evenodd"
       id="path395"
       inkscape:connector-curvature="0" />
    <path
       d="m 291.44472,840.36756 c -1.59933,-7.25836 -5.89519,-13.68452 -12.09817,-18.38593 -12.70598,-9.63045 -30.53152,-10.32326 -45.46674,-2.22226 -73.58207,48.93934 -13.67041,150.72963 -51.82771,184.40313 -6.02856,4.5601 -13.74144,7.6807 -21.29094,7.0148 l 1.07474,-1.0794 0.0459,-0.046 c 4.45924,-4.2531 8.44653,-9.4497 9.94385,-15.34273 1.11442,-4.38529 0.46187,-8.68734 -2.46907,-12.1971 -2.31828,-2.77725 -5.75737,-4.64371 -9.47598,-5.65031 -7.91691,-2.14329 -17.61705,1.80084 -22.53855,7.86658 -2.9805,3.67371 -4.2161,7.95776 -3.63188,12.31188 0.74042,5.51578 4.24494,10.34548 8.34413,14.23448 1.02228,0.9696 2.18045,1.8316 3.41837,2.6085 -3.96716,2.5873 -8.4175,4.9222 -13.07767,7.1354 -8.51506,4.0421 -7.402,6.6733 1.80802,4.3088 6.37429,-1.6377 12.54261,-4.1253 18.47304,-7.9674 11.89549,3.8541 24.84366,-0.1007 34.64872,-7.5168 17.15865,-12.9803 18.61377,-33.36007 19.61011,-51.40784 4.68263,-34.77047 -10.86818,-106.61422 31.04993,-132.24419 11.76154,-6.37952 25.64546,-5.90159 35.66517,1.69302 4.86363,3.68629 8.24251,8.72432 9.47734,14.42341 l 0.0222,0.10262 0.0286,0.10069 c 1.54339,5.44067 1.64483,10.91213 0.80335,16.56747 -0.7445,5.00222 -3.55834,10.24274 -6.92813,14.36748 -7.4554,9.12501 -19.05394,15.12416 -29.68479,7.45696 -2.35797,-1.70057 -3.64622,-4.17836 -3.73373,-6.94341 -0.10528,-3.34307 1.57805,-6.73319 4.57984,-8.91595 4.21108,-3.06123 9.80275,-3.07207 14.61642,-1.99946 l 4.06105,0.90478 c -5.32704,-7.78664 -14.27301,-8.72296 -22.64231,-3.93155 -5.17527,3.76295 -9.2855,8.80194 -9.10315,14.57518 1.483,29.39601 50.75489,26.87951 57.25132,-14.92478 0.9797,-6.58239 0.82542,-12.96985 -0.95336,-19.30039 z M 152.81773,1008.2075 c -0.14208,0.1335 -0.28475,0.2661 -0.42916,0.3978 -1.49131,-0.7697 -2.91372,-1.6613 -4.00491,-2.6964 -4.53474,-4.3018 -9.08727,-11.00462 -4.26257,-16.95112 2.6673,-3.28789 8.5292,-6.00127 12.89242,-4.82005 2.07863,0.56253 4.13442,1.56545 5.43835,3.12684 5.41144,6.48116 -4.87659,16.01293 -9.71872,20.87653 l 0.0846,0.066 z"
       style="fill:#ffffff;fill-rule:evenodd"
       id="path418"
       inkscape:connector-curvature="0" />
    <path
       d="m 249.75525,930.0262 c -2.82274,-2.60051 -5.34582,-5.42519 -7.55918,-8.47441 -2.42746,-3.34558 -4.48363,-6.96103 -6.1542,-10.84669 -0.7203,-1.67541 -1.07222,-2.98283 -1.16147,-3.96523 -0.0997,-1.11326 0.2232,-1.60611 0.64829,-1.95165 0.21952,-0.17808 1.01842,-0.49226 1.50448,0.42432 5.19058,9.78667 11.93344,13.8483 21.70578,18.63546 1.18857,0.58169 2.30686,1.25322 3.11233,2.07089 1.75516,1.78129 1.26793,4.68572 -0.48549,6.67898 -2.44448,2.77919 -5.44203,2.45591 -7.41632,1.17482 -1.62894,-1.05732 -3.07225,-2.71376 -4.19422,-3.74649 z m -20.91813,20.37571 c -2.0734,-5.59302 -3.69847,-11.19474 -4.86477,-16.79532 -1.27897,-6.14315 -2.00623,-12.28728 -2.16593,-18.41922 -0.0689,-2.64407 0.11885,-4.5235 0.46342,-5.78215 0.39083,-1.42588 0.98704,-1.73677 1.63359,-1.78012 0.33489,-0.0233 1.39821,0.2981 1.54223,1.82503 1.53662,16.30266 7.46471,27.07852 16.55721,41.37455 1.10552,1.73813 2.08986,3.52253 2.64737,5.20974 1.2143,3.67506 -0.66784,6.7419 -3.5957,7.60602 -4.08138,1.20522 -7.39058,-1.80316 -9.08515,-5.06919 -1.39762,-2.69402 -2.30859,-5.94727 -3.13227,-8.16934 z"
       style="fill:#ffffff;fill-rule:evenodd"
       id="path420"
       inkscape:connector-curvature="0" />
    <path
       d="m 139.32716,822.10068 c -4.78967,-16.46681 -3.71397,-34.74744 7.36987,-49.80386 12.43924,-16.89771 33.8837,-23.80976 55.88952,-14.45942 0.30295,0.12971 0.60338,0.25998 0.90013,0.39257 9.20884,4.10539 15.37814,10.0211 18.91633,16.67221 10.92994,20.54006 -10.28667,48.5938 -31.78977,45.30029 -14.53317,-2.22729 -19.62329,-13.45283 -15.52294,-26.32221 2.1789,-6.8381 10.7261,-7.13156 7.79709,0.97176 -4.11235,11.38117 11.36993,24.88334 21.59021,3.91858 5.88358,-12.073 4.59727,-33.66458 -19.44441,-36.47222 -12.89842,-0.29927 -23.36377,5.85455 -29.22141,13.81133 -9.8188,13.33706 -10.50948,29.75045 -6.26066,44.29911 l 0.0236,0.0774 0.0193,0.0774 c 6.38939,27.0243 16.99624,52.10568 23.40036,78.83981 4.31173,17.99898 6.36693,45.57556 -9.85675,58.88978 -5.14314,4.2221 -12.50797,6.27808 -20.40533,4.40271 -7.85496,-1.86608 -13.68899,-7.04717 -16.14858,-13.00256 -0.80856,-1.9561 -1.2474,-3.91974 -1.37013,-5.86403 -0.39451,-6.21923 3.60053,-11.46613 5.99314,-17.03999 4.629,-10.78436 14.418,-4.41685 8.60566,4.05756 -3.14311,4.58681 -5.28621,11.36509 -2.95669,17.00032 1.24353,3.00954 4.07653,5.88996 8.11551,6.84933 3.96388,0.94252 7.45368,-0.39161 9.97676,-2.46191 13.58174,-11.14655 11.00317,-37.11799 7.41865,-52.07723 -4.09971,-17.10929 -10.2861,-33.68625 -15.40814,-50.49492 -2.89012,-9.06966 -5.42461,-18.24288 -7.63042,-27.56323 z"
       style="fill:#ffffff;fill-rule:evenodd"
       id="path422"
       inkscape:connector-curvature="0"
       sodipodi:nodetypes="csccccccccccccscccccccccsccc" />
  </g>
</svg>
