<?xml version="1.0" encoding="UTF-8" standalone="no"?>
<!-- Created with Inkscape (http://www.inkscape.org/) -->

<svg
   xmlns:dc="http://purl.org/dc/elements/1.1/"
   xmlns:cc="http://creativecommons.org/ns#"
   xmlns:rdf="http://www.w3.org/1999/02/22-rdf-syntax-ns#"
   xmlns:svg="http://www.w3.org/2000/svg"
   xmlns="http://www.w3.org/2000/svg"
   xmlns:sodipodi="http://sodipodi.sourceforge.net/DTD/sodipodi-0.dtd"
   xmlns:inkscape="http://www.inkscape.org/namespaces/inkscape"
   width="290mm"
   height="400mm"
   viewBox="0 0 290 400"
   version="1.1"
   id="svg591"
   inkscape:version="0.91 r13725"
   sodipodi:docname="gears_white.svg">
  <defs
     id="defs585" />
  <sodipodi:namedview
     id="base"
     pagecolor="#ffffff"
     bordercolor="#666666"
     borderopacity="1.0"
     inkscape:pageopacity="0.0"
     inkscape:pageshadow="2"
     inkscape:zoom="0.35"
     inkscape:cx="400"
     inkscape:cy="666.61946"
     inkscape:document-units="mm"
     inkscape:current-layer="layer1"
     showgrid="false"
     inkscape:window-width="1366"
     inkscape:window-height="738"
     inkscape:window-x="0"
     inkscape:window-y="0"
     inkscape:window-maximized="1" />
  <metadata
     id="metadata588">
    <rdf:RDF>
      <cc:Work
         rdf:about="">
        <dc:format>image/svg+xml</dc:format>
        <dc:type
           rdf:resource="http://purl.org/dc/dcmitype/StillImage" />
        <dc:title></dc:title>
      </cc:Work>
    </rdf:RDF>
  </metadata>
  <g
     inkscape:label="Capa 1"
     inkscape:groupmode="layer"
     id="layer1"
     transform="translate(0,103)">
    <g
       transform="matrix(0,-0.92171939,-0.97343645,0,2759.9051,514.87166)"
       id="Layer1012"
       style="fill:#ffffff">
      <path
         inkscape:connector-curvature="0"
         d="m 327.3003,2603.6744 a 3.7086,3.7086 0 0 0 -3.7086,3.7086 3.7086,3.7086 0 1 0 3.7086,-3.7086 z"
         style="fill:#ffffff;fill-rule:evenodd"
         id="path335" />
      <path
         inkscape:connector-curvature="0"
         d="m 327.3003,2652.5792 a 3.7086,3.7086 0 0 0 -3.7086,3.7086 3.7086,3.7086 0 1 0 3.7086,-3.7086 z"
         style="fill:#ffffff;fill-rule:evenodd"
         id="path337" />
      <path
         inkscape:connector-curvature="0"
         d="m 338.0771,2605.818 a 3.7086,3.7086 0 0 0 -4.8456,2.0071 3.7086,3.7086 0 1 0 4.8456,-2.0071 z"
         style="fill:#ffffff;fill-rule:evenodd"
         id="path339" />
      <path
         inkscape:connector-curvature="0"
         d="m 319.362,2651.0002 a 3.7086,3.7086 0 0 0 -4.8455,2.0071 3.7086,3.7086 0 1 0 4.8455,-2.0071 z"
         style="fill:#ffffff;fill-rule:evenodd"
         id="path341" />
      <path
         inkscape:connector-curvature="0"
         d="m 347.2131,2611.9226 a 3.7086,3.7086 0 0 0 -5.2447,0 3.7086,3.7086 0 1 0 5.2447,0 z"
         style="fill:#ffffff;fill-rule:evenodd"
         id="path343" />
      <path
         inkscape:connector-curvature="0"
         d="m 312.6322,2646.5035 a 3.7086,3.7086 0 0 0 -5.2448,0 3.7086,3.7086 0 1 0 5.2448,0 z"
         style="fill:#ffffff;fill-rule:evenodd"
         id="path345" />
      <path
         inkscape:connector-curvature="0"
         d="m 353.3176,2621.0586 a 3.7086,3.7086 0 0 0 -4.8456,-2.0071 3.7086,3.7086 0 1 0 4.8456,2.0071 z"
         style="fill:#ffffff;fill-rule:evenodd"
         id="path347" />
      <path
         inkscape:connector-curvature="0"
         d="m 308.1354,2639.7736 a 3.7086,3.7086 0 0 0 -4.8455,-2.0071 3.7086,3.7086 0 1 0 4.8455,2.0071 z"
         style="fill:#ffffff;fill-rule:evenodd"
         id="path349" />
      <path
         inkscape:connector-curvature="0"
         d="m 355.4612,2631.8353 a 3.7086,3.7086 0 0 0 -3.7086,-3.7087 3.7086,3.7086 0 1 0 3.7086,3.7087 z"
         style="fill:#ffffff;fill-rule:evenodd"
         id="path351" />
      <path
         inkscape:connector-curvature="0"
         d="m 306.5564,2631.8353 a 3.7086,3.7086 0 0 0 -3.7086,-3.7087 3.7086,3.7086 0 1 0 3.7086,3.7087 z"
         style="fill:#ffffff;fill-rule:evenodd"
         id="path353" />
      <path
         inkscape:connector-curvature="0"
         d="m 353.3176,2642.612 a 3.7086,3.7086 0 0 0 -2.0071,-4.8456 3.7086,3.7086 0 1 0 2.0071,4.8456 z"
         style="fill:#ffffff;fill-rule:evenodd"
         id="path355" />
      <path
         inkscape:connector-curvature="0"
         d="m 308.1354,2623.8969 a 3.7086,3.7086 0 0 0 -2.0071,-4.8455 3.7086,3.7086 0 1 0 2.0071,4.8455 z"
         style="fill:#ffffff;fill-rule:evenodd"
         id="path357" />
      <path
         inkscape:connector-curvature="0"
         d="m 347.2131,2651.748 a 3.7086,3.7086 0 0 0 0,-5.2448 3.7086,3.7086 0 1 0 0,5.2448 z"
         style="fill:#ffffff;fill-rule:evenodd"
         id="path359" />
      <path
         inkscape:connector-curvature="0"
         d="m 312.6321,2617.1671 a 3.7086,3.7086 0 0 0 0,-5.2448 3.7086,3.7086 0 1 0 0,5.2448 z"
         style="fill:#ffffff;fill-rule:evenodd"
         id="path361" />
      <path
         inkscape:connector-curvature="0"
         d="m 338.0771,2657.8527 a 3.7086,3.7086 0 0 0 2.0071,-4.8455 3.7086,3.7086 0 1 0 -2.0071,4.8455 z"
         style="fill:#ffffff;fill-rule:evenodd"
         id="path363" />
      <path
         inkscape:connector-curvature="0"
         d="m 319.362,2612.6706 a 3.7086,3.7086 0 0 0 2.0071,-4.8456 3.7086,3.7086 0 1 0 -2.0071,4.8456 z"
         style="fill:#ffffff;fill-rule:evenodd"
         id="path365" />
      <path
         inkscape:connector-curvature="0"
         d="m 325.97,2549.057 c -1.2808,0.021 -2.5544,0.07 -3.8203,0.148 l 0.2804,3.5684 -2.6962,0.2128 -0.2812,-3.5712 c -1.2746,0.1202 -2.5404,0.269 -3.7973,0.4461 l 0.5605,3.5408 -2.6713,0.4237 -0.5613,-3.5436 c -1.2602,0.2198 -2.5107,0.4681 -3.7507,0.7439 l 0.8373,3.4903 -2.6296,0.6319 -0.8382,-3.4909 c -1.238,0.3185 -2.465,0.6646 -3.6802,1.0383 l 1.1086,3.4137 -2.572,0.8362 -1.1089,-3.4126 c -1.2084,0.4153 -2.4039,0.8576 -3.5862,1.3264 l 1.3714,3.3118 -2.4988,1.0356 -1.3706,-3.309 c -1.1708,0.5091 -2.3274,1.0447 -3.4692,1.6057 l 1.6228,3.1859 -2.4098,1.2284 -1.6212,-3.1817 c -1.126,0.5997 -2.2367,1.2244 -3.3313,1.8738 l 1.8616,3.0384 -2.3059,1.4136 -1.8595,-3.0345 c -1.0749,0.6857 -2.1329,1.3957 -3.1732,2.129 l 2.0871,2.8733 -2.188,1.59 -2.0847,-2.8692 c -1.0172,0.7672 -2.0167,1.5573 -2.9965,2.3697 l 2.299,2.6923 -2.0564,1.7569 -2.2973,-2.6898 c -0.9537,0.844 -1.8877,1.71 -2.8015,2.5966 l 2.4973,2.4976 -1.9122,1.9127 -2.4952,-2.495 c -0.8846,0.9154 -1.749,1.8502 -2.591,2.8056 l 2.6812,2.2904 -1.7562,2.0569 -2.6808,-2.2894 c -0.8103,0.9811 -1.599,1.9805 -2.3642,2.9989 l 2.8516,2.0722 -1.5895,2.1885 -2.8524,-2.0725 c -0.7309,1.041 -1.4381,2.1 -2.1212,3.1755 l 3.0053,1.842 -1.4128,2.3065 -3.0058,-1.8417 c -0.6471,1.0945 -1.2703,2.2048 -1.8674,3.3312 l 3.1418,1.6009 -1.2275,2.4103 -3.1417,-1.6007 c -0.559,1.1414 -1.0938,2.2968 -1.6005,3.4674 l 3.2587,1.35 -1.0345,2.4991 -3.2557,-1.3484 c -0.4664,1.1816 -0.9092,2.375 -1.3218,3.5826 l 3.3509,1.089 -0.8352,2.5726 -3.348,-1.0877 c -0.3717,1.2138 -0.7178,2.4388 -1.0339,3.6757 l 3.4197,0.8213 -0.6309,2.63 -3.4188,-0.8207 c -0.2749,1.2379 -0.5212,2.4872 -0.7388,3.7458 l 3.4661,0.5491 -0.4227,2.6716 -3.4647,-0.5484 c -0.1763,1.2545 -0.3231,2.5188 -0.4412,3.7912 l 3.489,0.2749 -0.2116,2.6967 -3.4831,-0.2741 c -0.0771,1.2638 -0.1282,2.5347 -0.1472,3.8133 l 3.4908,3e-4 5e-4,2.7047 -3.4949,2e-4 c 0.0217,1.2785 0.0725,2.5498 0.1516,3.8133 l 3.4818,-0.2739 0.2126,2.6965 -3.482,0.2742 c 0.1212,1.2718 0.271,2.5353 0.449,3.7896 l 3.4491,-0.5459 0.4234,2.6715 -3.4488,0.5462 c 0.2204,1.2576 0.4692,2.5053 0.7457,3.7425 l 3.3938,-0.8143 0.6318,2.6298 -3.3924,0.8145 c 0.3189,1.2353 0.6657,2.4593 1.0395,3.6715 l 3.3141,-1.0765 0.836,2.5723 -3.3113,1.0758 c 0.4152,1.2055 0.8579,2.398 1.3264,3.5774 l 3.2109,-1.3297 1.0353,2.4988 -3.2062,1.328 c 0.5088,1.1678 1.0434,2.3217 1.6037,3.4607 l 3.0854,-1.5716 1.2281,2.4097 -3.0798,1.5693 c 0.5988,1.1233 1.2224,2.2313 1.8706,3.3229 l 2.9399,-1.8013 1.4133,2.3061 -2.935,1.7987 c 0.6844,1.0717 1.3932,2.1269 2.1251,3.1644 l 2.7777,-2.0178 1.59,2.188 -2.7729,2.0149 c 0.7657,1.0145 1.5538,2.0113 2.3644,2.9888 l 2.6015,-2.2217 1.7568,2.0564 -2.5986,2.2195 c 0.8421,0.9511 1.7057,1.8832 2.5903,2.7945 l 2.4127,-2.4125 1.9128,1.9125 -2.4096,2.4096 c 0.9131,0.8822 1.8457,1.7449 2.7986,2.5848 l 2.212,-2.59 2.0571,1.7566 -2.2117,2.5894 c 0.9785,0.8085 1.9758,1.5953 2.9916,2.3588 l 2.0016,-2.7551 2.1885,1.5897 -2.0017,2.7554 c 1.0385,0.7291 2.0943,1.435 3.167,2.117 l 1.7798,-2.9043 2.3066,1.4133 -1.7803,2.9049 c 1.0918,0.6459 2.1991,1.2684 3.3225,1.8644 l 1.548,-3.0384 2.4104,1.228 -1.5481,3.0385 c 1.1386,0.5581 2.2909,1.0925 3.4583,1.5986 l 1.3064,-3.154 2.4993,1.035 -1.3054,3.1513 c 1.1785,0.4657 2.3691,0.9084 3.5736,1.321 l 1.0548,-3.2463 2.5728,0.8359 -1.0545,3.2451 c 1.2108,0.3719 2.4329,0.7177 3.6669,1.0341 l 0.7966,-3.3177 2.6305,0.6316 -0.7969,3.3187 c 1.2352,0.2753 2.4815,0.5215 3.7373,0.74 l 0.5334,-3.3676 2.6719,0.4231 -0.5334,3.3672 c 1.2521,0.1772 2.5137,0.3251 3.7836,0.4444 l 0.2672,-3.3954 2.6968,0.2123 -0.2668,3.3905 c 1.2613,0.078 2.5297,0.1306 3.8061,0.1511 l 0,-3.4024 2.7051,0 0,3.4024 c 1.2761,-0.02 2.5449,-0.07 3.8061,-0.147 l -0.2668,-3.3948 2.6967,-0.2116 0.2673,3.3969 c 1.2699,-0.1192 2.5312,-0.2674 3.7838,-0.4433 l -0.5336,-3.3705 2.6717,-0.4224 0.5343,3.3728 c 1.256,-0.2186 2.5019,-0.4653 3.7378,-0.7397 l -0.798,-3.3248 2.6303,-0.631 0.7985,3.326 c 1.2341,-0.3167 2.457,-0.6611 3.6682,-1.0325 l -1.0576,-3.2555 2.5726,-0.8352 1.0576,3.2551 c 1.2043,-0.4132 2.3964,-0.853 3.5751,-1.3193 l -1.3095,-3.1625 2.4991,-1.0345 1.3092,3.1606 c 1.1673,-0.5065 2.3209,-1.0393 3.4596,-1.5973 l -1.5522,-3.0469 2.4106,-1.2275 1.5507,3.044 c 1.1232,-0.5967 2.2311,-1.2182 3.3229,-1.8643 l -1.7835,-2.9109 2.3067,-1.4128 1.7824,2.9086 c 1.0724,-0.6824 2.128,-1.3892 3.1661,-2.1189 l -2.0037,-2.7583 2.1889,-1.5894 2.0023,2.7562 c 1.0154,-0.7641 2.0129,-1.5503 2.9913,-2.3591 l -2.2123,-2.5905 2.0571,-1.7565 2.2121,2.5901 c 0.9523,-0.8406 1.885,-1.7027 2.7978,-2.5855 l -2.4091,-2.4093 1.913,-1.9123 2.4091,2.4091 c 0.8836,-0.912 1.7478,-1.8431 2.5892,-2.7947 l -2.5941,-2.2159 1.7568,-2.0566 2.5961,2.2173 c 0.8098,-0.9778 1.599,-1.9736 2.3641,-2.9885 l -2.7674,-2.0108 1.5902,-2.1882 2.7712,2.0136 c 0.7308,-1.0379 1.4387,-2.0933 2.1226,-3.1656 l -2.9262,-1.7933 1.4136,-2.3062 2.93,1.7954 c 0.6476,-1.0918 1.272,-2.1988 1.8701,-3.3219 l -3.0695,-1.5643 1.2283,-2.4099 3.0733,1.5659 c 0.5596,-1.1392 1.0965,-2.2914 1.6047,-3.4591 l -3.1954,-1.3237 1.0354,-2.4989 3.1965,1.324 c 0.4679,-1.1794 0.9128,-2.3703 1.3276,-3.5756 l -3.2983,-1.0718 0.836,-2.5725 3.2998,1.0723 c 0.3728,-1.2123 0.7219,-2.435 1.0404,-3.6701 l -3.3788,-0.8114 0.6316,-2.6301 3.3825,0.8121 c 0.2761,-1.2372 0.5258,-2.4843 0.7459,-3.7415 l -3.4376,-0.5447 0.4233,-2.6716 3.4413,0.545 c 0.1775,-1.2544 0.3282,-2.5175 0.449,-3.7891 l -3.474,-0.2736 0.2124,-2.6967 3.4732,0.2734 c 0.0789,-1.2638 0.1332,-2.5341 0.155,-3.8126 l -3.4893,-2e-4 2e-4,-2.7048 3.4976,-2e-4 c -0.0191,-1.2786 -0.0672,-2.5503 -0.1438,-3.8141 l -3.4931,0.2749 -0.2119,-2.6969 3.498,-0.2752 c -0.1184,-1.2727 -0.2658,-2.5372 -0.441,-3.7924 l -3.4737,0.5501 -0.4229,-2.6718 3.4787,-0.551 c -0.2179,-1.2589 -0.4645,-2.5079 -0.7385,-3.7466 l -3.4313,0.8236 -0.6313,-2.6301 3.4351,-0.825 c -0.3166,-1.237 -0.6613,-2.463 -1.0328,-3.6771 l -3.3641,1.0929 -0.8357,-2.5728 3.3661,-1.0936 c -0.4137,-1.2074 -0.8542,-2.4025 -1.3209,-3.5843 l -3.2714,1.3549 -1.0349,-2.4991 3.2712,-1.3551 c -0.5075,-1.1706 -1.0406,-2.3271 -1.5997,-3.469 l -3.1546,1.6074 -1.2278,-2.4103 3.1534,-1.6068 c -0.598,-1.1262 -1.2203,-2.2374 -1.8677,-3.3322 l -3.0167,1.8484 -1.4132,-2.3065 3.0156,-1.8478 c -0.6841,-1.0753 -1.3923,-2.1339 -2.1238,-3.1749 l -2.8599,2.0777 -1.5899,-2.1885 2.8588,-2.0769 c -0.7661,-1.0181 -1.554,-2.0186 -2.3649,-2.9996 l -2.6869,2.2949 -1.7565,-2.0572 2.6869,-2.2948 c -0.8429,-0.9547 -1.707,-1.8903 -2.5922,-2.8052 l -2.4993,2.4991 -1.9126,-1.9127 2.4987,-2.4988 c -0.9144,-0.8859 -1.8479,-1.7521 -2.8023,-2.5956 l -2.2977,2.69 -2.0567,-1.757 2.2991,-2.6919 c -0.9805,-0.8118 -1.979,-1.6023 -2.9967,-2.369 l -2.0842,2.8682 -2.1883,-1.5901 2.0861,-2.8711 c -1.0408,-0.7323 -2.099,-1.4418 -3.1742,-2.1269 l -1.8572,3.0303 -2.3063,-1.4135 1.8588,-3.0334 c -1.0948,-0.6483 -2.2045,-1.2744 -3.3308,-1.8733 l -1.6185,3.1761 -2.4103,-1.2283 1.6197,-3.1784 c -1.142,-0.5603 -2.2974,-1.098 -3.4683,-1.6067 l -1.3681,3.3024 -2.499,-1.0354 1.3675,-3.3015 c -1.1822,-0.4681 -2.3763,-0.9133 -3.5847,-1.3281 l -1.1061,3.4039 -2.5725,-0.8362 1.106,-3.4039 c -1.2152,-0.373 -2.4409,-0.7217 -3.6789,-1.0399 l -0.8362,3.4826 -2.6303,-0.6316 0.8366,-3.4847 c -1.24,-0.2756 -2.4901,-0.5247 -3.7503,-0.7441 l -0.5604,3.5379 -2.6717,-0.4232 0.5603,-3.5386 c -1.2569,-0.1769 -2.5225,-0.3269 -3.7969,-0.4467 l -0.2809,3.5691 -2.6967,-0.2123 0.2805,-3.5648 c -1.2662,-0.078 -2.539,-0.1313 -3.8198,-0.1518 l 0,3.5774 -2.7051,0 z m 65.7596,58.5731 -46.3747,15.0681 c 1.0037,2.0183 1.674,4.2334 1.9403,6.5722 l 46.5409,-15.1219 c 1.5387,5.7183 2.3623,11.7296 2.3623,17.9332 0,21.6048 -9.9556,40.8861 -25.525,53.5151 l -29.062,-40 c -1.6192,1.6177 -3.5167,2.9529 -5.6131,3.928 l 29.1476,40.118 c -10.8567,7.1507 -23.854,11.315 -37.8233,11.315 -13.8323,0 -26.7112,-4.0829 -37.5035,-11.1043 l 29.4086,-40.4777 c -2.6559,-1.2936 -4.9786,-3.1716 -6.8047,-5.4675 l 0.7356,2.1666 -28.8887,39.762 c -15.7409,-12.6233 -25.8234,-32.013 -25.8234,-53.7552 0,-6.2548 0.8393,-12.3132 2.4024,-18.0739 l 46.5586,15.1279 0.7124,2.0982 c 0.0506,-3.2919 0.8982,-6.3894 2.3591,-9.1037 l -0.7847,0.5456 -46.7225,-15.1809 c 9.5413,-24.9513 33.1758,-42.9371 61.162,-44.2135 l 0,48.8106 c 1.1788,-0.2222 2.3941,-0.3397 3.6368,-0.3397 1.0945,0 2.1675,0.092 3.2134,0.2649 l 0,-48.7143 c 27.8311,1.4586 51.2913,19.446 60.7456,44.3272 z"
         style="fill:#ffffff;fill-rule:evenodd"
         id="path367" />
      <path
         inkscape:connector-curvature="0"
         d="m 327.3004,2604.5623 c -15.06,0 -27.2732,12.2132 -27.2732,27.2731 0,15.06 12.2132,27.2732 27.2732,27.2732 15.06,0 27.2732,-12.2132 27.2732,-27.2732 0,-15.0599 -12.2132,-27.2731 -27.2732,-27.2731 z m 0,5.6937 c -11.916,0 -21.5794,9.6635 -21.5794,21.5794 0,11.916 9.6634,21.5794 21.5794,21.5794 11.9159,0 21.5794,-9.6634 21.5794,-21.5794 0,-11.9159 -9.6635,-21.5794 -21.5794,-21.5794 z m 0,-11.9764 c -18.5293,0 -33.5558,15.0266 -33.5558,33.5558 0,18.5293 15.0265,33.5559 33.5558,33.5559 18.5292,0 33.5558,-15.0266 33.5558,-33.5559 0,-18.5292 -15.0266,-33.5558 -33.5558,-33.5558 z m 3.0432,28.6075 c -0.4782,-0.2946 -1.0025,-0.522 -1.5592,-0.6688 l 0,-12.0148 c 3.9155,0.3259 7.4685,1.9292 10.2428,4.3917 z m 2.5817,3.493 c -0.1286,-0.4978 -0.3215,-0.9698 -0.5694,-1.4065 l 8.6752,-8.284 c 2.1831,2.6895 3.5935,6.0324 3.8912,9.6905 z m -0.5413,4.2671 c 0.2468,-0.4452 0.4366,-0.9262 0.5602,-1.4331 l 11.9849,0 c -0.2824,3.6685 -1.6841,7.0233 -3.8626,9.7242 z m -3.5996,2.8054 c 0.5757,-0.1517 1.1165,-0.3896 1.6076,-0.6992 l 8.6768,8.2855 c -2.7804,2.4835 -6.3495,4.1011 -10.2844,4.4285 z m -4.5756,-0.6992 c 0.4911,0.3096 1.0318,0.5475 1.6076,0.6992 l 0,12.0148 c -3.9349,-0.3274 -7.5041,-1.945 -10.2844,-4.4283 z m -2.5522,-3.5393 c 0.1236,0.507 0.3133,0.988 0.5602,1.4332 l -8.6824,8.291 c -2.1785,-2.7009 -3.5801,-6.0556 -3.8627,-9.7242 z m 0.5882,-4.2405 c -0.2478,0.4367 -0.4408,0.9087 -0.5693,1.4065 l -11.997,0 c 0.2978,-3.6581 1.7081,-7.001 3.8912,-9.6905 z m 3.5716,-2.7553 c -0.5569,0.1468 -1.081,0.3742 -1.5593,0.6688 l -8.6835,-8.2919 c 2.7744,-2.4625 6.3274,-4.0658 10.2428,-4.3917 z m 1.4839,2.6726 c -1.6258,0 -2.9444,1.3186 -2.9444,2.9446 0,1.6259 1.3186,2.9445 2.9444,2.9445 1.626,0 2.9446,-1.3186 2.9446,-2.9445 0,-1.626 -1.3186,-2.9446 -2.9446,-2.9446 z"
         style="fill:#ffffff;fill-rule:evenodd"
         id="path369" />
      <path
         inkscape:connector-curvature="0"
         d="m 427.558,2674.3904 c -3.0241,0.1609 -5.9966,0.5158 -8.9056,1.0525 l -2.6971,-11.1479 -7.2692,1.7588 2.6958,11.1435 c -2.5724,0.7709 -5.0823,1.6872 -7.5196,2.7394 l -5.0989,-10.2714 -6.6989,3.3256 5.1018,10.2778 c -2.3269,1.3197 -4.5702,2.77 -6.7196,4.3413 l -7.2583,-8.8992 -5.7957,4.7271 7.262,8.9041 c -1.9726,1.7958 -3.8416,3.7035 -5.596,5.7139 l -9.054,-7.0738 -4.6045,5.8938 9.0511,7.0714 c -1.525,2.1813 -2.929,4.4538 -4.1993,6.8088 l -10.3847,-4.8867 -3.1844,6.7674 10.3782,4.8836 c -1.0003,2.4577 -1.8636,4.986 -2.5799,7.575 l -11.2013,-2.4627 -1.6059,7.3046 11.2051,2.4635 c -0.4254,2.6064 -0.7053,5.2618 -0.83,7.9577 l -11.479,0.08 0.0524,7.4789 11.476,-0.08 c 0.162,2.6931 0.4782,5.3448 0.9394,7.9465 l -11.1653,2.6187 1.708,7.2814 11.1606,-2.6176 c 0.7531,2.5782 1.6517,5.0942 2.6868,7.5387 l -10.3054,5.0264 3.2787,6.7221 10.3117,-5.0293 c 1.3036,2.3365 2.7381,4.5901 4.2942,6.7504 l -8.948,7.1944 4.6866,5.8288 8.9522,-7.1978 c 1.7822,1.9854 3.6774,3.8672 5.6755,5.6356 l -7.1353,9.0026 5.8614,4.6455 7.1311,-8.9973 c 2.1708,1.5408 4.4348,2.9592 6.7809,4.246 l -4.9574,10.347 6.7451,3.2316 4.9559,-10.344 c 2.4512,1.0174 4.9725,1.9003 7.5563,2.6348 l -2.5405,11.1819 7.2934,1.6569 2.5419,-11.1886 c 2.604,0.4434 5.2569,0.7437 7.9515,0.887 l 0,11.4787 7.4792,0 0,-11.4787 c 3.024,-0.1609 5.9967,-0.5156 8.9057,-1.0523 l 2.6968,11.1473 7.2691,-1.7586 -2.6957,-11.1431 c 2.5726,-0.771 5.0824,-1.687 7.5199,-2.7394 l 5.0986,10.2709 6.6988,-3.3253 -5.1017,-10.2776 c 2.3271,-1.3199 4.5705,-2.7702 6.7199,-4.3415 l 7.258,8.8988 5.7955,-4.7267 -7.2617,-8.9041 c 1.9725,-1.7961 3.8419,-3.7035 5.5962,-5.714 l 9.0538,7.0734 4.6043,-5.8933 -9.0508,-7.0714 c 1.5248,-2.1817 2.9288,-4.4538 4.1991,-6.809 l 10.3848,4.8865 3.1843,-6.767 -10.3782,-4.8838 c 0.9997,-2.4581 1.8636,-4.9859 2.5799,-7.5752 l 11.2012,2.4628 1.606,-7.3043 -11.2052,-2.4637 c 0.4242,-2.6069 0.7052,-5.262 0.83,-7.9578 l 11.4789,-0.08 -0.0521,-7.4786 -11.4762,0.08 c -0.1621,-2.6933 -0.4782,-5.3448 -0.9394,-7.9464 l 11.1653,-2.6189 -1.7079,-7.2811 -11.1608,2.6176 c -0.753,-2.5784 -1.6516,-5.0946 -2.6867,-7.539 l 10.3053,-5.0264 -3.2785,-6.7218 -10.3115,5.029 c -1.3036,-2.3365 -2.7383,-4.5901 -4.2944,-6.7504 l 8.9477,-7.1944 -4.6861,-5.8285 -8.952,7.1975 c -1.7826,-1.9854 -3.6777,-3.8674 -5.6759,-5.6358 l 7.135,-9.0024 -5.8609,-4.6454 -7.1312,8.9972 c -2.1712,-1.5405 -4.4349,-2.9592 -6.7812,-4.246 l 4.9573,-10.3469 -6.7446,-3.2314 -4.9561,10.344 c -2.4515,-1.0172 -4.9726,-1.9003 -7.5565,-2.6348 l 2.5404,-11.1819 -7.293,-1.6569 -2.5422,11.1886 c -2.6044,-0.4426 -5.2569,-0.7437 -7.9515,-0.887 l 0,-11.4787 -7.4788,0 z m -29.2811,97.9134 -2.7551,2.7551 -2.1761,2.1761 c -7.3015,-8.2356 -11.9658,-18.8624 -12.6629,-30.5576 l 3.0831,0 3.8961,0 36.2413,0 z m -0.5998,9.2626 2.1761,-2.1761 2.7549,-2.7551 25.6266,-25.6266 0,36.2414 0,3.8962 0,3.0831 c -11.6951,-0.6973 -22.3223,-5.3611 -30.5576,-12.6629 z m 41.0142,-41.0144 30.5576,-30.5576 c 7.3013,8.2357 11.9656,18.8625 12.6629,30.5576 z m 26.2262,-34.8886 -30.5574,30.5572 0,-43.2203 c 11.695,0.6974 22.3221,5.3613 30.5574,12.6631 z m -30.5574,88.5692 0,-3.0864 0,-3.8961 0,-36.2415 30.5584,30.5585 c -8.2358,7.3027 -18.8629,11.968 -30.5584,12.6655 z m -6.1254,-101.2356 0,43.2236 -25.6264,-25.6264 -2.7551,-2.755 -2.1767,-2.1768 c 8.2358,-7.3028 18.8627,-11.9679 30.5582,-12.6654 z m -34.8903,16.9961 2.1774,2.1775 2.7551,2.7548 25.6266,25.6266 -36.2413,0 -3.8963,0 -3.0831,0 c 0.6973,-11.6948 5.3603,-22.3229 12.6616,-30.5589 z m 75.906,67.2434 -30.5589,-30.5591 43.2203,0 c -0.6973,11.6948 -5.3599,22.3231 -12.6614,30.5591 z"
         style="fill:#ffffff;fill-rule:evenodd"
         id="path371" />
      <path
         inkscape:connector-curvature="0"
         d="m 613.6771,2655.9285 2.4651,4.0616 c 3.0262,-0.5672 6.0305,-1.3789 8.9851,-2.4419 l 0.0699,-4.7636 c 5.2761,-2.0808 10.0713,-4.927 14.2919,-8.3707 l 4.2209,2.2717 c 2.3704,-2.0486 4.5451,-4.262 6.517,-6.6122 l -2.3813,-4.1803 c 3.3884,-4.3202 6.1042,-9.1359 8.0487,-14.2685 l 4.8241,-0.1399 c 1.0082,-2.9415 1.7807,-5.9591 2.3106,-9.0223 l -4.1313,-2.417 -0.0295,-0.01 c 0.7463,-5.3014 0.7073,-10.7784 -0.2061,-16.2732 l 4.1264,-2.5398 c -0.6002,-3.0399 -1.4494,-6.0562 -2.5547,-9.0203 l -4.6669,-0.031 -0.166,0.046 c -2.0786,-5.1237 -4.8851,-9.7862 -8.2639,-13.9003 l 2.29,-4.2379 c -2.1033,-2.4079 -4.378,-4.6118 -6.7944,-6.6045 l -3.9144,2.2212 -0.2193,0.222 c -4.256,-3.3017 -8.9884,-5.9557 -14.0272,-7.8705 l 0.008,-0.03 -0.1383,-4.7549 c -3.0253,-1.0347 -6.1311,-1.8214 -9.2844,-2.3528 l -2.1904,3.7292 -0.1038,0.3979 c -5.2284,-0.7353 -10.6276,-0.7102 -16.0465,0.1576 l -0.0276,-0.1006 -2.4457,-3.9574 c -3.1265,0.6005 -6.229,1.4627 -9.2764,2.5936 l -0.028,4.233 0.1243,0.45 c -5.0896,2.0341 -9.7299,4.7795 -13.8335,8.0891 l -0.3243,-0.319 -3.6953,-2.0272 c -2.4767,2.1137 -4.7432,4.4058 -6.7911,6.8456 l 2.2484,4.0217 0.0676,0.067 c -3.3278,4.2169 -6.015,8.9084 -7.9659,13.9098 l -0.3861,-0.1004 -4.2469,0.089 c -1.0742,3.0246 -1.8989,6.1325 -2.465,9.2903 l 4.0001,2.3835 c -0.7782,5.2353 -0.7882,10.6467 0.0526,16.0806 l -0.269,0.074 -3.7467,2.2648 c 0.569,3.1004 1.3962,6.1789 2.4883,9.205 l 4.6668,0.068 c 2.0285,5.1573 4.792,9.8559 8.1329,14.0087 l -0.0903,0.092 -2.186,3.9687 c 2.0676,2.4297 4.3079,4.6575 6.6911,6.6766 l 4.1005,-2.2834 c 4.2832,3.3983 9.0604,6.138 14.1591,8.1156 l -0.003,0.012 0.0987,4.6791 c 2.9529,1.0427 5.9851,1.8492 9.0654,2.4109 l 2.4121,-4.032 c 5.348,0.7999 10.8799,0.8056 16.4338,-0.076 z m -13.0194,-61.1954 c -4.3192,2.5701 -5.7333,8.1501 -3.1579,12.4607 2.5754,4.3104 8.1665,5.7217 12.4856,3.1515 4.3192,-2.5702 5.7333,-8.1502 3.1578,-12.4607 -2.5755,-4.3104 -8.1663,-5.7219 -12.4855,-3.1515 z"
         style="fill:#ffffff;fill-rule:evenodd"
         id="path373" />
      <path
         inkscape:connector-curvature="0"
         d="m 558.4592,2592.5237 c 5.627,-5.6272 14.7534,-5.6272 20.3804,0 5.6272,5.627 5.6272,14.7534 0,20.3804 -5.627,5.6272 -14.7534,5.6272 -20.3804,0 -5.6272,-5.627 -5.6272,-14.7534 0,-20.3804 z m 10.1904,-2.4099 c 6.9573,0 12.5996,5.6424 12.5996,12.6003 0,6.9573 -5.6423,12.5996 -12.5996,12.5996 -6.9579,0 -12.6003,-5.6423 -12.6003,-12.5996 0,-6.9579 5.6424,-12.6003 12.6003,-12.6003 z m -6.4417,4.5705 c 4.0415,-3.2502 9.9695,-3.0001 13.7203,0.7508 3.7508,3.7508 4.0009,9.6788 0.7508,13.7203 z m 12.883,16.0592 c -4.0415,3.2501 -9.9695,3 -13.7203,-0.7508 -3.7509,-3.7508 -4.001,-9.6788 -0.7508,-13.7203 z"
         style="fill:#ffffff;fill-rule:evenodd"
         id="path375" />
      <path
         inkscape:connector-curvature="0"
         d="m 609.2958,2660.3561 -3.5034,8.1654 c -2.2569,0.4319 -4.4256,1.1361 -6.4679,2.0794 l -7.605,-4.6019 -7.2002,6.106 3.2979,8.2547 c -1.2643,1.8606 -2.3129,3.8854 -3.1079,6.0412 l -8.6281,2.1227 -0.7736,9.4088 8.1655,3.5035 c 0.4318,2.2569 1.1361,4.4255 2.0794,6.4678 l -4.602,7.6051 6.1061,7.2001 8.2547,-3.2979 c 1.8606,1.2644 3.8854,2.313 6.0412,3.108 l 2.1227,8.6281 9.4088,0.7736 3.5035,-8.1655 c 2.2569,-0.4319 4.4256,-1.1362 6.4678,-2.0795 l 7.605,4.602 7.2001,-6.1061 -3.2979,-8.2545 c 1.2644,-1.8606 2.313,-3.8856 3.1081,-6.0414 l 8.628,-2.1226 0.7736,-9.4088 -8.1654,-3.5035 c -0.4319,-2.2569 -1.1362,-4.4255 -2.0795,-6.4679 l 4.6019,-7.6049 -6.106,-7.2002 -8.2546,3.2979 c -1.8605,-1.2644 -3.8855,-2.3129 -6.0413,-3.108 l -2.1226,-8.628 z m 3.7172,12.3939 c -12.9149,-1.0619 -24.2495,8.5504 -25.3114,21.4653 -1.0619,12.9148 8.5504,24.2495 21.4653,25.3114 12.9148,1.0619 24.2495,-8.5504 25.3114,-21.4653 1.0619,-12.9148 -8.5505,-24.2495 -21.4653,-25.3114 z m -0.1154,1.4037 c -12.1398,-0.9982 -22.7941,8.0372 -23.7923,20.177 -0.9982,12.1398 8.0372,22.7941 20.177,23.7923 12.1397,0.9981 22.7941,-8.0372 23.7922,-20.177 0.9982,-12.1398 -8.0372,-22.7941 -20.1769,-23.7923 z m -0.7849,9.5453 c -6.8689,-0.5648 -12.8974,4.5476 -13.4622,11.4165 -0.5648,6.869 4.5476,12.8974 11.4166,13.4622 6.869,0.5648 12.8974,-4.5476 13.4622,-11.4165 0.5648,-6.869 -4.5476,-12.8974 -11.4166,-13.4622 z"
         style="fill:#ffffff;fill-rule:evenodd"
         id="path377" />
      <path
         inkscape:connector-curvature="0"
         d="m 529.2891,2654.5589 c -6.2737,0.6433 -11.7473,3.9905 -15.2355,8.8572 l -9.0761,-5.2401 c 5.3383,-7.9723 14.1747,-13.405 24.3116,-14.1002 z m 19.6617,8.8572 9.076,-5.2399 c -5.3386,-7.9716 -14.1747,-13.4039 -24.3114,-14.0991 l 0,10.4814 c 6.2737,0.6434 11.7468,3.9912 15.2354,8.8576 z m 11.2779,-1.4002 -9.084,5.2447 c 1.1648,2.6432 1.8122,5.5658 1.8122,8.6394 0,3.1636 -0.6855,6.1671 -1.9154,8.871 l 9.0752,5.2398 c 2.1026,-4.2546 3.2862,-9.0444 3.2862,-14.1108 0,-4.9765 -1.1407,-9.6866 -3.1742,-13.8841 z m -46.0256,26.573 -9.0834,5.2442 c 5.3524,7.8569 14.1219,13.2009 24.1694,13.8898 l 0,-10.4814 c -6.185,-0.6342 -11.5916,-3.8974 -15.086,-8.6526 z m -11.3156,1.4221 9.0759,-5.2402 c -1.2301,-2.7035 -1.9158,-5.7072 -1.9158,-8.8708 0,-3.0736 0.6479,-5.9956 1.8126,-8.6391 l -9.0849,-5.2454 c -2.0331,4.1979 -3.1737,8.9082 -3.1737,13.8845 0,5.0664 1.1828,9.8565 3.2859,14.111 z m 30.8279,7.2304 0,10.4828 c 10.0479,-0.6889 18.8183,-6.0326 24.1702,-13.8907 l -9.0842,-5.2446 c -3.4942,4.7554 -8.9011,8.0181 -15.086,8.6525 z m -4.6919,-65.445 c -1.2559,0.069 -2.4974,0.1927 -3.7232,0.365 l 1.3792,6.9344 -4.8617,0.9671 -1.3803,-6.9389 c -1.2145,0.3133 -2.4074,0.6798 -3.5791,1.0914 l 2.7051,6.5312 -4.5795,1.897 -2.703,-6.5254 c -1.1253,0.5447 -2.2225,1.1378 -3.2921,1.7726 l 3.9176,5.8632 -4.1214,2.7539 -3.9106,-5.8523 c -0.9938,0.7521 -1.9547,1.5452 -2.8804,2.3767 l 4.97,4.97 -3.505,3.5051 -4.9614,-4.9612 c -0.8265,0.9285 -1.6161,1.8905 -2.3629,2.8867 l 5.8298,3.8954 -2.7539,4.1216 -5.8206,-3.8891 c -0.6281,1.069 -1.2137,2.1659 -1.7522,3.2898 l 6.4624,2.6768 -1.8971,4.5797 -6.4488,-2.6713 c -0.4046,1.1673 -0.7623,2.3563 -1.0696,3.5658 l 6.8347,1.3597 -0.9671,4.8617 -6.8126,-1.3551 c -0.1666,1.2183 -0.2846,2.4517 -0.3505,3.6992 l 6.9322,10e-5 0,4.957 -6.9138,0 c 0.0731,1.245 0.198,2.4761 0.3719,3.6913 l 6.7728,-1.3471 0.9671,4.8617 -6.7635,1.3453 c 0.3135,1.2021 0.6781,2.3831 1.0879,3.543 l 6.3593,-2.6341 1.8971,4.5797 -6.3449,2.6281 c 0.5411,1.1125 1.1289,2.198 1.7582,3.2559 l 5.6971,-3.8066 2.754,4.1217 -5.6822,3.7966 c 0.7447,0.9825 1.5295,1.9328 2.352,2.8485 l 4.8244,-4.8244 3.5053,3.5053 -4.8156,4.8156 c 0.9184,0.8176 1.87,1.5985 2.8545,2.3382 l 3.7818,-5.6596 4.1218,2.7541 -3.7781,5.6544 c 1.0573,0.6224 2.1413,1.2043 3.2525,1.739 l 2.6028,-6.2832 4.58,1.897 -2.6,6.2772 c 1.1555,0.4027 2.3318,0.7614 3.5286,1.0685 l 1.3251,-6.6619 4.8622,0.9671 -1.323,6.651 c 1.2076,0.1677 2.4302,0.2885 3.6667,0.3572 l 0,-6.7774 4.9575,0 0,6.7774 c 1.2364,-0.07 2.4594,-0.1891 3.6669,-0.3572 l -1.3229,-6.651 4.8618,-0.9671 1.3251,6.6619 c 1.1971,-0.3071 2.3734,-0.6658 3.5291,-1.0685 l -2.6,-6.2772 4.5795,-1.897 2.6028,6.2834 c 1.1114,-0.5346 2.1953,-1.1168 3.2528,-1.7394 l -3.7781,-5.6544 4.1214,-2.7539 3.782,5.6598 c 0.9847,-0.7395 1.9365,-1.5208 2.8546,-2.3385 l -4.8155,-4.8156 3.5049,-3.5052 4.8244,4.8244 c 0.8227,-0.9157 1.6077,-1.866 2.3522,-2.8485 l -5.6821,-3.7968 2.754,-4.1215 5.6971,3.8066 c 0.6294,-1.0579 1.2171,-2.1434 1.7581,-3.2559 l -6.3448,-2.6282 1.897,-4.5797 6.3593,2.6342 c 0.41,-1.1596 0.7746,-2.3411 1.0879,-3.543 l -6.7635,-1.3454 0.9671,-4.8618 6.7728,1.3471 c 0.1744,-1.2152 0.298,-2.4464 0.3719,-3.6911 l -6.9138,-2e-4 0,-4.9569 6.9322,0 c -0.0649,-1.2477 -0.1841,-2.481 -0.3507,-3.6992 l -6.8124,1.355 -0.9671,-4.8618 6.8348,-1.3595 c -0.307,-1.2095 -0.6652,-2.3985 -1.0697,-3.5658 l -6.4488,2.6711 -1.897,-4.5797 6.4623,-2.6766 c -0.5381,-1.1239 -1.1242,-2.2207 -1.7522,-3.2898 l -5.8205,3.8891 -2.7541,-4.1218 5.8298,-3.8952 c -0.7467,-0.9962 -1.5361,-1.9584 -2.3628,-2.8867 l -4.9612,4.9612 -3.5053,-3.5053 4.9698,-4.9698 c -0.9255,-0.8315 -1.8864,-1.6246 -2.8801,-2.3765 l -3.9104,5.8521 -4.1218,-2.754 3.9177,-5.8631 c -1.0694,-0.6348 -2.1667,-1.2279 -3.2918,-1.7726 l -2.703,6.5254 -4.5801,-1.897 2.7054,-6.5313 c -1.1716,-0.4118 -2.3645,-0.7782 -3.5789,-1.0913 l -1.3802,6.9389 -4.8622,-0.9671 1.3794,-6.9344 c -1.2258,-0.1723 -2.4673,-0.2956 -3.7231,-0.365 l 0,7.0685 -4.9575,0 z m 2.4788,27.6094 c -9.1082,0 -16.4943,7.3861 -16.4943,16.4942 0,9.1082 7.3861,16.4943 16.4943,16.4943 9.1081,0 16.4942,-7.3861 16.4942,-16.4943 0,-9.1081 -7.3861,-16.4942 -16.4942,-16.4942 z"
         style="fill:#ffffff;fill-rule:evenodd"
         id="path379" />
      <path
         inkscape:connector-curvature="0"
         d="m 530.0866,2726.8053 -2.8628,1.6528 -2.8626,1.6527 -6.0284,-3.4805 -5.099,8.8316 6.0284,3.4805 0,3.3057 0,3.3055 -6.0285,3.4806 5.0989,8.8316 6.0285,-3.4806 2.8627,1.6528 2.8628,1.6528 0,6.9612 10.1977,0 0,-6.9612 2.8629,-1.6528 2.8629,-1.6529 6.0284,3.4805 5.0988,-8.8315 -6.0286,-3.4805 0,-3.3055 0,-3.3057 6.0284,-3.4805 -5.0988,-8.8315 -6.0284,3.4805 -2.8627,-1.6528 -2.8629,-1.6528 0,-6.9611 -10.1977,0 z m 5.0989,4.9163 -4.5581,2.6317 -4.558,2.6315 0,5.2633 0,5.2632 4.558,2.6315 4.5581,2.6317 4.558,-2.6317 4.5581,-2.6315 0,-5.2632 0,-5.2633 -4.5581,-2.6315 z"
         style="fill:#ffffff;fill-rule:evenodd"
         id="path381" />
    </g>
  </g>
</svg>
