<?xml version="1.0" encoding="UTF-8" standalone="no"?>
<!-- Created with Inkscape (http://www.inkscape.org/) -->

<svg
   xmlns:dc="http://purl.org/dc/elements/1.1/"
   xmlns:cc="http://creativecommons.org/ns#"
   xmlns:rdf="http://www.w3.org/1999/02/22-rdf-syntax-ns#"
   xmlns:svg="http://www.w3.org/2000/svg"
   xmlns="http://www.w3.org/2000/svg"
   xmlns:sodipodi="http://sodipodi.sourceforge.net/DTD/sodipodi-0.dtd"
   xmlns:inkscape="http://www.inkscape.org/namespaces/inkscape"
   width="210mm"
   height="112mm"
   viewBox="0 0 744.09449 396.85016"
   id="svg7813"
   version="1.1"
   inkscape:version="0.91 r13725"
   sodipodi:docname="zeppelin_white_black.svg">
  <defs
     id="defs7815" />
  <sodipodi:namedview
     id="base"
     pagecolor="#ffffff"
     bordercolor="#666666"
     borderopacity="1.0"
     inkscape:pageopacity="0.0"
     inkscape:pageshadow="2"
     inkscape:zoom="0.31"
     inkscape:cx="-289.51613"
     inkscape:cy="520"
     inkscape:document-units="px"
     inkscape:current-layer="layer1"
     showgrid="false"
     inkscape:window-width="1600"
     inkscape:window-height="870"
     inkscape:window-x="0"
     inkscape:window-y="0"
     inkscape:window-maximized="1" />
  <metadata
     id="metadata7818">
    <rdf:RDF>
      <cc:Work
         rdf:about="">
        <dc:format>image/svg+xml</dc:format>
        <dc:type
           rdf:resource="http://purl.org/dc/dcmitype/StillImage" />
        <dc:title></dc:title>
      </cc:Work>
    </rdf:RDF>
  </metadata>
  <g
     inkscape:label="Capa 1"
     inkscape:groupmode="layer"
     id="layer1"
     transform="translate(0,-655.51207)">
    <path
       d="m 104.23023,901.63095 c -6.98868,2.24518 -13.97713,4.49046 -20.966016,6.73596 l -3.937498,19.00666 c 10.206204,-8.12405 22.028704,-16.55502 35.693854,-25.07126 -2.81061,-2.40455 -7.14309,-1.75685 -10.79034,-0.67136 z m 432.9887,120.00245 -7.57389,1.4232 0.48101,-4.601 c 0.0884,-1.155 1.60468,-1.5473 3.41326,-1.9682 2.10774,-0.4907 4.16709,-0.6529 4.00029,1.5263 l -0.32067,3.6197 z m -46.66185,-2.3631 c 28.97585,-6.1103 61.48196,-16.8347 95.70351,-29.80116 3.67144,-1.39111 6.73735,-2.55671 10.56903,-3.05795 16.73267,-2.18968 18.21099,2.49047 19.82374,5.55207 -0.3324,1.37907 -0.642,2.70426 -0.9373,3.98503 -0.19346,-0.84879 -0.73599,-1.7234 -1.59586,-2.43799 l -2.70114,9.2419 c 1.22077,0.8577 1.90718,1.9816 1.95353,3.1734 -0.24034,0.9427 -0.48693,1.8674 -0.74448,2.7796 0.0525,-1.35 -0.61028,-2.5424 -1.96461,-3.3688 l -2.24657,7.6871 c 1.64651,0.6388 2.04193,1.3877 1.97869,2.3878 -1.16689,2.9632 -2.60843,5.9225 -4.52304,9.0688 -0.004,-0.035 -0.01,-0.07 -0.0156,-0.1054 l -10e-4,-0.011 c -0.37702,-2.0454 -4.70585,-2.8752 -17.27584,-2.446 -2.27077,0.077 -4.33894,0.2968 -6.59594,0.6801 -26.33999,4.4763 -46.72981,6.9132 -62.35409,7.8806 -5.07525,0.3142 -11.45794,1.153 -16.59405,1.0041 -4.7977,-1.9419 -8.99533,-5.4614 -12.4788,-12.2179 z m 36.12701,4.201 -7.16578,1.3466 0.45531,-4.3531 c 0.0834,-1.0927 1.51833,-1.464 3.22915,-1.8622 1.99429,-0.4641 3.94255,-0.6177 3.78469,1.4442 l -0.30337,3.4245 z m 82.5455,-21.8012 c -2.55553,-0.8953 -5.63606,-1.0384 -8.29364,-0.9632 -2.1414,0.061 -4.56756,0.2965 -7.28332,0.7379 l 0.89278,-8.5893 c 1.72964,-0.41068 3.47261,-0.75158 5.33645,-0.993 2.32895,-0.30164 4.72704,-0.5279 7.0747,-0.46155 1.68458,0.0484 3.36841,0.28691 5.00653,0.91708 l -2.7335,9.35207 z m -3.1101,10.6407 c -2.7392,-0.5896 -5.60563,-0.5042 -8.37214,-0.3751 -1.55188,0.072 -3.287,0.2028 -5.22645,0.3994 l 0.81234,-7.8153 c 2.18549,-0.2964 4.15903,-0.4953 5.93362,-0.6055 3.01611,-0.1875 6.19353,-0.3022 9.15695,0.5127 l -2.30432,7.8838 z m -15.02002,-10.4089 c -4.39282,0.8194 -8.60002,1.6521 -13.00714,2.4269 l 0.62996,-7.04413 c 3.54445,-1.02151 6.75789,-1.91762 10.22319,-2.91783 1.03452,-0.29842 2.03677,-0.58457 3.0259,-0.85288 l -0.87191,8.38794 z m -1.11506,10.7284 c -4.28539,0.7139 -8.54012,1.4378 -12.8269,2.1544 l 0.65254,-7.2978 c 4.15311,-0.8876 8.05404,-1.6258 12.22554,-2.4728 0.25379,-0.042 0.50468,-0.082 0.75298,-0.1206 l -0.80416,7.7368 z m -14.43943,-7.835 c -3.43551,0.6403 -6.83586,1.2842 -10.27814,1.914 l 0.32465,-5.3485 c 3.51896,-1.2148 7.00222,-2.28369 10.55817,-3.32799 l -0.60468,6.76249 z m -10.48247,5.2793 c 3.491,-0.7506 6.72348,-1.3584 10.1947,-2.0601 l -0.64501,7.2141 c -3.35099,0.5544 -6.59487,1.1365 -9.96435,1.6832 l 0.41466,-6.8372 z m -2.3298,-2.8959 -4.83469,0.8993 c -0.13786,-2.996 0.60824,-3.8961 3.85448,-5.3303 0.42273,-0.1603 0.8489,-0.3191 1.27798,-0.4765 l -0.29777,4.9075 z m -0.61931,10.2068 -5.1487,0.7906 0.61135,-6.6951 4.94954,-0.8908 -0.41219,6.7953 z m -8.2374,1.4237 -13.93228,2.4339 0.22454,-3.9138 c 0.0519,-1.4574 1.01709,-2.3331 3.21054,-3.0643 0.85815,-0.2862 5.28032,-1.1122 6.23279,-1.3043 1.96063,-0.3956 5.04137,-1.4572 4.59068,2.1779 l -0.32627,3.6706 z m -53.04185,14.9731 c -4.71715,-2.1671 -8.27794,-5.5163 -11.1421,-10.0179 -25.61508,3.732 -51.42309,6.2591 -79.85749,9.0732 l -5.75112,0.068 c -5.72166,0.4094 -11.4602,0.7927 -17.21003,1.1506 -77.83653,3.6253 -147.02486,0.9763 -202.00035,-7.284 l -1.03731,-0.063 -1.2084,-0.2795 c -23.86017,-3.6775 -44.99372,-8.4239 -62.92759,-14.1873 -4.07612,6.8925 -10.39805,15.9244 -18.35155,19.4057 l -0.46919,0.2053 -0.52102,-0.051 c -11.74399,-1.1353 -21.26733,-5.297 -29.821534,-12.3419 l -0.582102,-0.4793 0.01989,-0.7001 c 0.267661,-9.4677 0.535323,-18.9348 0.802877,-28.40254 -6.888228,-6.3001 -13.028423,-13.44685 -14.521586,-22.2356 -15.031745,-1.5679 -30.063812,-3.13601 -45.09545,-4.70381 L 10.36937,962.85745 9.910829,962.286 C 9.409272,961.66066 8.907178,961.03512 8.405191,960.41 l -1.474128,-1.83599 2.472725,-0.57372 c 6.700037,-1.55424 13.40018,-3.10849 20.10011,-4.66273 l 0.203246,-0.0473 0.209914,0 c 9.127381,-0.19077 18.254654,-0.38165 27.381604,-0.57221 2.033648,-10.85465 9.794761,-17.47898 18.327457,-24.96727 1.437996,-6.94017 2.875777,-13.88066 4.313665,-20.82094 l 0.182169,-0.87901 0.955904,-0.30724 c 7.313973,-2.35002 14.628053,-4.69994 21.942133,-7.04985 l 0.0396,-0.0129 c 5.3157,-1.58446 11.13457,-1.93675 14.91238,1.80201 66.6555,-40.80716 175.78596,-83.17868 351.30071,-102.54785 29.71162,-2.54037 62.721,-3.39766 95.73641,-1.5094 18.52059,1.05935 37.04076,3.43647 54.98527,6.41183 19.92526,3.3041 41.19204,9.12512 60.62391,16.95861 20.68534,8.3388 39.29884,18.62985 51.97433,35.16723 12.36599,16.13337 13.87808,33.63214 5.08331,53.12928 -0.67587,1.49822 -1.2298,3.04924 -2.12742,4.44357 -22.50928,34.95152 -67.0179,60.12914 -115.52638,78.30163 l -0.46672,1.82911 c -1.65006,6.84704 -2.98127,13.97394 -5.21956,20.64674 -1.50972,4.5008 -3.44455,8.6658 -5.91308,12.7224 l -0.0283,0.046 -0.79685,1.2082 c -1.92289,2.9171 -4.88566,4.1799 -8.08233,4.8764 -0.99301,2.813 -3.96148,4.82 -6.51368,6.0741 -4.09192,2.0106 -9.01328,3.1347 -13.52815,3.6082 -4.28731,0.4496 -9.14405,0.4106 -13.33275,-0.7026 -2.34325,-0.6228 -4.98814,-1.7691 -6.48184,-3.7487 -3.66984,0.387 -7.34398,0.7356 -11.02242,1.0316 -11.82367,0.9517 -23.8992,0.8155 -35.58254,-1.4284 -3.98406,-0.765 -8.48366,-1.4988 -12.21974,-3.2149 z M 144.36087,890.15215 c 133.13366,-56.32412 305.98459,-81.79489 423.59258,-77.21743 -81.58551,-11.04424 -259.75493,12.7028 -388.87582,61.10439 80.24204,-33.76451 178.6855,-57.26422 293.12059,-71.74677 29.88584,-1.99837 61.91566,-2.4653 93.62609,-0.33455 17.7888,1.19496 35.47512,3.66124 52.6288,6.67993 20.68899,3.64069 41.82501,9.74755 60.96932,17.99549 17.98409,7.74831 34.21972,16.83031 46.65475,31.19489 8.60185,9.93715 13.08908,21.3111 -5.65928,27.04383 -1.96515,0.60049 -3.93191,1.19969 -5.9006,1.79556 -1.96827,0.59576 -3.93901,1.18948 -5.91007,1.77997 -2.21904,0.6648 -4.44013,1.32648 -6.66304,1.98472 -2.2227,0.65813 -4.44744,1.31325 -6.67348,1.9645 -2.22624,0.65146 -4.45507,1.29981 -6.68498,1.9446 -2.2299,0.64469 -4.46206,1.2868 -6.69541,1.92461 -199.05112,56.86826 -412.1298,87.12037 -614.483312,86.16372 -0.616622,-0.71266 -1.207542,-1.43746 -1.767492,-2.1755 217.247284,-13.46513 435.224854,-39.45208 652.812804,-99.7438 -221.3564,42.3999 -440.13588,68.89561 -657.879448,90.12304 -0.04484,-0.14786 -0.0885,-0.2967 -0.130982,-0.44574 0.268522,-0.0247 0.422624,-0.0312 0.45381,-0.0172 211.95965,-29.54958 424.4787,-60.63306 638.1526,-88.65785 -212.75316,13.69193 -425.16521,43.02266 -638.106681,82.42108 l -1.13775,0.21056 4.203868,-3.84287 C 267.42136,915.1776 470.72635,884.81827 673.86316,877.37257 469.93939,873.41216 266.84678,903.45576 64.236685,955.45094 l -0.436496,1.67147 -35.331123,-0.3109 1.747705,-0.40541 c 9.55893,-0.19981 19.11829,-0.39961 28.67722,-0.5991 l 1.537683,-0.0323 0.186471,-1.33863 c 0.119259,-0.85643 0.278738,-1.68555 0.474887,-2.49068 C 255.93825,889.96794 455.98313,859.51451 662.3008,867.08797 457.24304,853.25237 257.61982,881.91271 62.689431,947.38894 c 1.25787,-2.71726 2.960839,-5.15386 4.947385,-7.44699 C 247.43954,871.26334 435.18187,838.61432 632.50088,849.41843 443.32604,832.28034 257.34313,861.64892 74.267491,933.37493 c 1.393906,-1.24786 2.829428,-2.49348 4.274737,-3.7635 l 0.39219,-0.34412 0.09904,-0.47919 0.188084,-0.90676 c 1.784053,-1.23722 3.583483,-2.4653 5.398725,-3.68521 l -1.456066,1.07861 C 251.75234,850.14356 427.48969,818.75402 610.38293,830.20035 433.25942,816.14945 259.87037,842.94734 90.97651,920.00067 c 8.28503,-5.37108 16.87806,-10.56828 25.77682,-15.59288 l 0.28228,0.39628 0.93322,-0.51027 2.08893,-1.14291 -0.29939,-0.41993 c 8.09297,-4.501 16.43576,-8.86123 25.02061,-13.08467 l -0.41811,0.50597 z m -71.145744,99.85231 c 0.251101,0.17787 0.504137,0.35563 0.760077,0.53231 9.74078,7.19783 22.568217,13.59453 38.144747,19.14333 -2.9703,7.1765 -9.24438,14.3342 -16.85236,17.9434 -10.462141,-1.1053 -15.833659,-3.7914 -23.538744,-9.9787 0.257123,-9.0991 1.179367,-18.5179 1.48628,-27.64034 z"
       style="fill:#000000;fill-rule:evenodd"
       id="path187"
       inkscape:connector-curvature="0" />
    <path
       d="m 136.57718,804.6557 32.27941,-10.14458 -0.88191,38.1441 c -31.12177,12.27706 -54.68891,23.89953 -90.500733,40.09978 l 29.519783,-100.46657 19.29832,-66.53559 -31.37331,0.72728 3.87082,-30.9653 76.90354,0 -18.14282,63.61239 -20.9731,65.52849 z"
       style="fill:#ffffff;fill-rule:evenodd"
       id="path273"
       inkscape:connector-curvature="0" />
    <path
       d="m 475.77665,760.34721 -0.0949,-42.15095 -0.0576,-42.68144 36.92096,0 0,34.23488 0.0212,33.13445 25.68434,-0.16099 -3.70812,15.58826 c -19.62264,-0.1412 -39.1584,0.682 -58.76577,2.03579 z"
       style="fill:#ffffff;fill-rule:evenodd"
       id="path275"
       inkscape:connector-curvature="0" />
    <path
       d="m 179.49112,827.80666 0.14238,-152.23528 60.19408,-0.057 3.81426,25.10255 -25.96512,0.5778 9.7e-4,31.73495 17.61749,0.0495 3.60822,24.89135 -21.28636,-0.0183 0.0657,23.6651 23.15601,-3.50004 -1.83944,28.32783 c -20.07107,6.35871 -39.97858,13.45277 -59.5082,21.461 z"
       style="fill:#ffffff;fill-rule:evenodd"
       id="path277"
       inkscape:connector-curvature="0" />
    <path
       d="m 295.87318,696.8728 -10.05275,0.20206 0.0575,34.539 10.05371,-0.49489 -0.0585,-34.24617 z m 27.27224,15.5832 c 0,5.22429 -0.80912,10.22545 -2.31121,14.977 -1.49897,4.74253 -3.49702,8.97597 -6.06674,12.65075 -2.5708,3.67586 -5.61735,6.69004 -9.07189,9.01942 -3.41723,2.30507 -6.99405,3.63133 -10.80422,3.88695 l -9.24471,0.62222 -0.32326,39.38357 -0.24948,0.0645 -0.33939,0.0892 -2.35659,0.62017 -0.58887,0.15561 -0.15959,0.0419 c -2.10516,0.55758 -4.20817,1.1213 -6.30924,1.69501 l -0.57071,0.1555 -0.0172,0 -2.93536,0.80707 -0.48187,0.13335 -0.10507,0.028 -2.93341,0.81815 -0.39295,0.11012 -0.19292,0.0548 -3.23442,0.91612 -0.28078,0.0796 c -2.14645,0.61211 -4.29,1.23239 -6.43345,1.86062 l -0.12926,0.0387 -3.37486,0.99698 -0.0403,0.0118 -3.41229,1.02225 -0.0474,0.014 -2.9132,0.88482 0.0324,-128.08432 47.20792,0 c 3.75565,0 7.32236,1.1 10.68915,3.17183 11.47289,7.06674 17.39124,20.64586 17.39124,33.76935 z"
       style="fill:#ffffff;fill-rule:evenodd"
       id="path279"
       inkscape:connector-curvature="0" />
    <path
       d="m 375.20394,694.36975 -9.9951,0.14248 0.0575,28.39042 9.99521,-0.36068 -0.0576,-28.17222 z m 27.32988,12.91647 c 0.0283,4.31722 -0.7576,8.43548 -2.25356,12.34158 -1.50715,3.93642 -3.55563,7.42344 -6.06686,10.39923 -2.57273,3.04848 -5.5425,5.5011 -8.89811,7.37484 -3.40314,1.90213 -7.05168,2.94858 -10.80432,3.13042 l -9.60119,0.46865 0.15356,34.44813 c -12.40729,2.26475 -24.77822,4.72231 -37.10066,7.39011 l 0.0292,-107.29501 46.4615,-0.029 c 3.75566,0 7.28602,0.87482 10.74669,2.62736 3.35357,1.69803 6.39001,3.99299 8.95575,6.90716 2.51725,2.85964 4.56573,6.26279 6.06675,10.11135 1.50209,3.84856 2.28292,7.89812 2.3112,12.12553 z"
       style="fill:#ffffff;fill-rule:evenodd"
       id="path281"
       inkscape:connector-curvature="0" />
    <path
       d="m 407.39647,768.45804 0.0303,-92.90279 59.12645,-0.0409 3.92836,16.64986 -25.97125,0.23734 -0.0182,22.76716 17.49629,-0.36165 3.87083,16.59523 -21.40648,0.59501 -0.0273,11.75582 25.84898,-0.31218 -4.25968,17.55082 -1.36369,0.11517 -0.77578,0.0753 c -18.85084,2.07978 -37.69061,4.48389 -56.47886,7.27482 z"
       style="fill:#ffffff;fill-rule:evenodd"
       id="path283"
       inkscape:connector-curvature="0" />
    <path
       d="m 543.41633,758.62855 0.1555,-41.36647 -0.11205,-41.73716 37.20776,0 -0.11721,42.06751 0.13334,43.06342 c -5.06772,-0.46059 -10.14361,-0.84138 -15.22552,-1.13227 -7.34054,-0.41929 -14.68924,-0.7162 -22.04182,-0.89503 z"
       style="fill:#ffffff;fill-rule:evenodd"
       id="path285"
       inkscape:connector-curvature="0" />
    <path
       d="m 640.81108,769.29339 -34.05518,-39.10978 -0.44241,33.43802 c -6.79715,-0.94353 -13.61042,-1.77383 -20.43681,-2.4667 l -0.12625,-42.33216 0,-43.30795 18.95193,0 18.66297,17.27304 18.71954,18.01356 0,-17.62567 0,-17.66093 21.14893,0.0107 0,99.44636 c -7.41431,-2.07376 -14.90238,-4.02837 -22.42272,-5.67692 z"
       style="fill:#ffffff;fill-rule:evenodd"
       id="path287"
       inkscape:connector-curvature="0" />
  </g>
</svg>
