<?xml version="1.0" encoding="UTF-8" standalone="no"?>
<!-- Created with Inkscape (http://www.inkscape.org/) -->

<svg
   xmlns:dc="http://purl.org/dc/elements/1.1/"
   xmlns:cc="http://creativecommons.org/ns#"
   xmlns:rdf="http://www.w3.org/1999/02/22-rdf-syntax-ns#"
   xmlns:svg="http://www.w3.org/2000/svg"
   xmlns="http://www.w3.org/2000/svg"
   xmlns:sodipodi="http://sodipodi.sourceforge.net/DTD/sodipodi-0.dtd"
   xmlns:inkscape="http://www.inkscape.org/namespaces/inkscape"
   width="210mm"
   height="77mm"
   viewBox="0 0 744.09449 272.83447"
   id="svg4099"
   version="1.1"
   inkscape:version="0.91 r13725"
   sodipodi:docname="zeppelin.svg">
  <defs
     id="defs4101" />
  <sodipodi:namedview
     id="base"
     pagecolor="#ffffff"
     bordercolor="#666666"
     borderopacity="1.0"
     inkscape:pageopacity="0.0"
     inkscape:pageshadow="2"
     inkscape:zoom="0.35"
     inkscape:cx="375"
     inkscape:cy="520"
     inkscape:document-units="px"
     inkscape:current-layer="layer1"
     showgrid="false"
     inkscape:window-width="1600"
     inkscape:window-height="870"
     inkscape:window-x="0"
     inkscape:window-y="0"
     inkscape:window-maximized="1" />
  <metadata
     id="metadata4104">
    <rdf:RDF>
      <cc:Work
         rdf:about="">
        <dc:format>image/svg+xml</dc:format>
        <dc:type
           rdf:resource="http://purl.org/dc/dcmitype/StillImage" />
        <dc:title></dc:title>
      </cc:Work>
    </rdf:RDF>
  </metadata>
  <g
     inkscape:label="Capa 1"
     inkscape:groupmode="layer"
     id="layer1"
     transform="translate(0,-779.52812)">
    <path
       inkscape:connector-curvature="0"
       id="path187"
       style="fill:#ffffff;fill-rule:evenodd"
       d="m 102.73188,901.08427 c -6.932681,2.2272 -13.865151,4.45449 -20.798048,6.682 l -3.905955,18.85441 c 10.12444,-8.05897 21.852222,-16.4224 35.407923,-24.87043 -2.78809,-2.38528 -7.08587,-1.74277 -10.70392,-0.66598 z m 429.52012,119.04113 -7.51322,1.4119 0.47716,-4.5642 c 0.0877,-1.1458 1.59183,-1.5349 3.38591,-1.9525 2.09086,-0.4867 4.13371,-0.6476 3.96825,1.5142 l -0.3181,3.5906 z m -46.28805,-2.3441 c 28.74373,-6.0614 60.98944,-16.6999 94.93684,-29.56249 3.64204,-1.37996 6.68338,-2.53623 10.48437,-3.03345 16.59863,-2.17214 18.06511,2.47052 19.66493,5.5076 -0.32974,1.36801 -0.63686,2.68259 -0.92979,3.9531 -0.19191,-0.84199 -0.73009,-1.70959 -1.58308,-2.41846 l -2.67949,9.1679 c 1.21099,0.8508 1.8919,1.9657 1.93788,3.148 -0.23842,0.9351 -0.48303,1.8524 -0.73852,2.7573 0.0521,-1.3391 -0.60539,-2.5221 -1.94887,-3.3418 l -2.22858,7.6255 c 1.63332,0.6337 2.02557,1.3766 1.96285,2.3687 -1.15755,2.9395 -2.58755,5.875 -4.48681,8.9961 -0.004,-0.035 -0.01,-0.069 -0.0155,-0.1045 l -10e-4,-0.011 c -0.374,-2.029 -4.66815,-2.8522 -17.13745,-2.4265 -2.25257,0.077 -4.30417,0.2945 -6.5431,0.6748 -26.12899,4.4404 -46.35546,6.8578 -61.85458,7.8174 -5.03459,0.3117 -11.36615,1.1438 -16.46112,0.9961 -4.75926,-1.9264 -8.92327,-5.4177 -12.37883,-12.1201 z m 35.8376,4.1673 -7.10838,1.3358 0.45167,-4.3182 c 0.0828,-1.084 1.50616,-1.4522 3.20328,-1.8473 1.97831,-0.4604 3.91097,-0.6127 3.75437,1.4326 l -0.30094,3.3971 z m 81.88424,-21.6266 c -2.53505,-0.88809 -5.5909,-1.03008 -8.2272,-0.9554 -2.12424,0.0608 -4.53097,0.2941 -7.22497,0.7319 l 0.88562,-8.52045 c 1.71579,-0.4074 3.4448,-0.74556 5.29371,-0.98505 2.31029,-0.29923 4.68917,-0.52367 7.01803,-0.45785 1.67108,0.048 3.34142,0.28461 4.96642,0.90973 l -2.71161,9.27712 z m -3.08518,10.5555 c -2.71726,-0.5849 -5.56072,-0.5002 -8.30508,-0.3721 -1.53944,0.072 -3.26067,0.2012 -5.18457,0.3962 l 0.80583,-7.7527 c 2.16798,-0.294 4.12571,-0.4913 5.88608,-0.6007 2.99195,-0.1859 6.14392,-0.2997 9.0836,0.5086 l -2.28586,7.8207 z m -14.8997,-10.3255 c -4.35763,0.8129 -8.53113,1.6388 -12.90294,2.4075 l 0.62491,-6.98777 c 3.51606,-1.01332 6.70376,-1.90225 10.1413,-2.89445 1.02623,-0.29603 2.02045,-0.57989 3.00166,-0.84605 l -0.86493,8.32077 z m -1.10613,10.6425 c -4.25105,0.7082 -8.4717,1.4262 -12.72414,2.1371 l 0.64731,-7.2394 c 4.11984,-0.8805 7.98952,-1.6127 12.12761,-2.4529 0.25175,-0.042 0.50063,-0.081 0.74695,-0.1197 l -0.79773,7.6749 z m -14.32376,-7.7723 c -3.40799,0.6352 -6.78109,1.2739 -10.1958,1.8986 l 0.32205,-5.3056 c 3.49077,-1.20503 6.94613,-2.26539 10.4736,-3.30132 l -0.59985,6.70832 z m -10.39849,5.237 c 3.46304,-0.7445 6.66962,-1.3474 10.11303,-2.0436 l -0.63985,7.1564 c -3.32414,0.5499 -6.54203,1.1273 -9.88452,1.6697 l 0.41134,-6.7825 z m -2.31114,-2.8727 -4.79596,0.8921 c -0.13676,-2.972 0.60337,-3.8649 3.8236,-5.2876 0.41935,-0.1591 0.84211,-0.3165 1.26775,-0.4727 l -0.29539,4.8682 z m -0.61435,10.1251 -5.10745,0.7843 0.60645,-6.6415 4.90989,-0.8837 -0.40889,6.7409 z m -8.17141,1.4123 -13.82067,2.4144 0.22274,-3.8825 c 0.0515,-1.4457 1.00895,-2.3144 3.18482,-3.0398 0.85128,-0.2838 5.23803,-1.1032 6.18286,-1.2938 1.94492,-0.3924 5.00099,-1.4455 4.55391,2.1605 l -0.32366,3.6412 z m -52.61694,14.8532 c -4.67936,-2.1498 -8.21163,-5.4722 -11.05285,-9.9377 -25.40988,3.7021 -51.01114,6.2089 -79.21776,9.0005 l -5.70505,0.067 c -5.67582,0.4061 -11.36839,0.7863 -17.07216,1.1413 -77.21299,3.5963 -145.84707,0.9686 -200.38216,-7.2256 l -1.029,-0.063 -1.19872,-0.2772 c -23.66903,-3.6481 -44.63329,-8.3564 -62.42349,-14.0737 -4.04346,6.8373 -10.31475,15.7968 -18.204541,19.2502 l -0.46543,0.2037 -0.51685,-0.05 c -11.649912,-1.1263 -21.096957,-5.2546 -29.582639,-12.2431 l -0.577439,-0.4755 0.01973,-0.6944 c 0.265517,-9.3919 0.531035,-18.78319 0.796446,-28.17509 -6.833043,-6.24963 -12.92405,-13.33913 -14.405251,-22.05747 -14.911329,-1.55534 -29.822977,-3.11089 -44.734199,-4.66613 l -0.7843925,-0.0811 -0.454868,-0.56688 c -0.497538,-0.62032 -0.99561,-1.24086 -1.493575,-1.86097 l -1.4623199,-1.82128 2.4529159,-0.56912 c 6.6463645,-1.5418 13.2928355,-3.08359 19.9390935,-4.62538 l 0.201618,-0.0469 0.208232,0 c 9.054263,-0.18924 18.108419,-0.37859 27.162255,-0.56763 2.017357,-10.76769 9.716297,-17.33896 18.180644,-24.76726 1.426476,-6.88457 2.852739,-13.76946 4.279109,-20.65414 l 0.180709,-0.87198 0.948247,-0.30477 c 7.255379,-2.3312 14.510864,-4.6623 21.766355,-6.99339 l 0.0393,-0.0128 c 5.27313,-1.57177 11.04539,-1.92125 14.79293,1.78757 66.12153,-40.48026 174.37777,-82.51235 348.4865,-101.72636 29.47361,-2.52002 62.21856,-3.37044 94.96948,-1.49731 18.37223,1.05087 36.74404,3.40895 54.5448,6.36047 19.76564,3.27763 40.86206,9.05202 60.13827,16.82275 20.51962,8.27201 38.98402,18.48062 51.55796,34.88552 12.26693,16.00412 13.76691,33.36271 5.04259,52.70368 -0.67046,1.48622 -1.21995,3.02481 -2.11037,4.40798 -22.32897,34.67152 -66.48103,59.64744 -114.60093,77.67436 l -0.46297,1.81446 c -1.63684,6.79219 -2.95739,13.86207 -5.17775,20.48137 -1.49763,4.4647 -3.41695,8.5964 -5.86571,12.6205 l -0.0281,0.046 -0.79048,1.1985 c -1.90748,2.8937 -4.84652,4.1464 -8.01758,4.8374 -0.98505,2.7904 -3.92974,4.7813 -6.46149,6.0254 -4.05914,1.9945 -8.94108,3.1096 -13.41978,3.5793 -4.25297,0.446 -9.0708,0.4073 -13.22595,-0.697 -2.32448,-0.6178 -4.94818,-1.755 -6.42992,-3.7187 -3.64044,0.384 -7.28514,0.7297 -10.93411,1.0234 -11.72896,0.9441 -23.70776,0.8089 -35.2975,-1.417 -3.95215,-0.7589 -8.4157,-1.4867 -12.12185,-3.1891 z M 142.54106,889.69742 c 132.06715,-55.87292 303.5334,-81.13964 420.19925,-76.59885 -80.93194,-10.95577 -257.67408,12.60103 -385.7606,60.61489 79.59923,-33.49403 177.25408,-56.80548 290.77245,-71.17201 29.64643,-1.98237 61.41966,-2.44556 92.87607,-0.33187 17.6463,1.18538 35.19093,3.6319 52.2072,6.62641 20.52325,3.61153 41.48995,9.66947 60.48091,17.85133 17.84002,7.68625 33.94559,16.69549 46.281,30.945 8.53294,9.85754 12.98422,21.14037 -5.61395,26.82718 -1.9494,0.59568 -3.90041,1.19009 -5.85333,1.78118 -1.9525,0.59099 -3.90745,1.17995 -5.86272,1.76571 -2.20127,0.65947 -4.40456,1.31585 -6.60967,1.96882 -2.20489,0.65285 -4.41181,1.30273 -6.62001,1.94876 -2.20842,0.64624 -4.41939,1.2894 -6.63143,1.92903 -2.21204,0.63952 -4.42632,1.27649 -6.64178,1.90918 -197.45656,56.41272 -408.8283,86.42248 -609.560799,85.47349 -0.611682,-0.70694 -1.197869,-1.42594 -1.753333,-2.15806 215.506962,-13.35727 431.738352,-39.13604 647.583242,-98.94479 -219.58315,42.06026 -436.61003,68.34371 -652.609298,89.40109 -0.04448,-0.14668 -0.08779,-0.29432 -0.129932,-0.44217 0.266371,-0.0245 0.419238,-0.0309 0.450174,-0.0171 210.261686,-29.31282 421.078286,-60.1473 633.040486,-87.9476 -211.04884,13.58225 -421.7593,42.67802 -632.994935,81.76083 l -1.128636,0.20887 4.170192,-3.81208 C 264.61573,914.52241 466.29208,884.40627 667.8016,877.02021 465.51142,873.09154 264.04575,902.89447 63.058725,954.47313 l -0.432999,1.65807 -35.048092,-0.3084 1.733704,-0.40217 c 9.482355,-0.1982 18.965137,-0.39641 28.447492,-0.59429 l 1.525366,-0.032 0.184976,-1.3279 c 0.118304,-0.84957 0.276505,-1.67205 0.471083,-2.47073 193.284355,-61.48102 391.726715,-91.69048 596.391605,-84.17769 -203.41507,-13.72477 -401.43915,14.70597 -594.807994,79.6577 1.247793,-2.6955 2.93712,-5.11257 4.907752,-7.38734 C 244.79398,870.95993 431.03234,838.57245 626.77067,849.29001 439.11126,832.28922 254.61823,861.42253 73.009181,932.57397 c 1.382739,-1.23787 2.806761,-2.47351 4.240492,-3.73336 l 0.389048,-0.34136 0.09825,-0.47535 0.186577,-0.89949 c 1.769761,-1.22732 3.554777,-2.44556 5.355474,-3.6557 l -1.444398,1.06997 C 249.07223,850.00933 423.40178,818.87125 604.8299,830.22588 429.12529,816.28755 257.12523,842.87076 89.584339,919.30684 c 8.21867,-5.32806 16.742871,-10.48362 25.570341,-15.46796 l 0.28002,0.3931 0.92574,-0.50618 2.07219,-1.13376 -0.29699,-0.41658 c 8.02814,-4.46494 16.30409,-8.79024 24.82018,-12.97985 l -0.41476,0.50192 z m -70.575814,99.05243 c 0.249089,0.17644 0.500098,0.35278 0.753988,0.52804 9.662745,7.14017 22.387425,13.48561 37.839186,18.99001 -2.94651,7.119 -9.17034,14.2193 -16.717371,17.7997 -10.378332,-1.0965 -15.706816,-3.7611 -23.350177,-9.8988 0.255063,-9.0262 1.169919,-18.3696 1.474374,-27.41895 z" />
  </g>
</svg>
