<?xml version="1.0" encoding="UTF-8" standalone="no"?>
<!-- Created with Inkscape (http://www.inkscape.org/) -->

<svg
   xmlns:dc="http://purl.org/dc/elements/1.1/"
   xmlns:cc="http://creativecommons.org/ns#"
   xmlns:rdf="http://www.w3.org/1999/02/22-rdf-syntax-ns#"
   xmlns:svg="http://www.w3.org/2000/svg"
   xmlns="http://www.w3.org/2000/svg"
   xmlns:sodipodi="http://sodipodi.sourceforge.net/DTD/sodipodi-0.dtd"
   xmlns:inkscape="http://www.inkscape.org/namespaces/inkscape"
   width="210mm"
   height="75mm"
   viewBox="0 0 210 75"
   version="1.1"
   id="svg845"
   inkscape:version="0.92.4 (unknown)"
   sodipodi:docname="logo_black.svg">
  <defs
     id="defs839" />
  <sodipodi:namedview
     id="base"
     pagecolor="#ffffff"
     bordercolor="#666666"
     borderopacity="1.0"
     inkscape:pageopacity="0.0"
     inkscape:pageshadow="2"
     inkscape:zoom="0.35"
     inkscape:cx="400"
     inkscape:cy="-11.428571"
     inkscape:document-units="mm"
     inkscape:current-layer="layer1"
     showgrid="false"
     inkscape:window-width="1366"
     inkscape:window-height="707"
     inkscape:window-x="0"
     inkscape:window-y="25"
     inkscape:window-maximized="1" />
  <metadata
     id="metadata842">
    <rdf:RDF>
      <cc:Work
         rdf:about="">
        <dc:format>image/svg+xml</dc:format>
        <dc:type
           rdf:resource="http://purl.org/dc/dcmitype/StillImage" />
        <dc:title></dc:title>
      </cc:Work>
    </rdf:RDF>
  </metadata>
  <g
     inkscape:label="Capa 1"
     inkscape:groupmode="layer"
     id="layer1"
     transform="translate(0,-222)">
    <g
       id="g875"
       transform="matrix(1.0868855,0,0,1.0868855,-18.677006,203.63627)">
      <path
         id="path139"
         style="fill:#000000;fill-rule:evenodd;stroke-width:0.26458332"
         d="M 41.984473,63.104306 52.053165,59.939943 51.778104,71.83799 c -9.707615,3.829474 -17.058745,7.454768 -28.229242,12.508019 l 9.20787,-31.337806 6.019589,-20.753995 -9.786038,0.226881 1.207373,-9.658774 h 23.987972 l -5.659147,19.842136 z"
         inkscape:connector-curvature="0" />
      <path
         id="path141"
         style="fill:#000000;fill-rule:evenodd;stroke-width:0.26458332"
         d="m 147.78851,49.283478 -0.0296,-13.147859 -0.018,-13.313304 h 11.51647 v 10.678636 l 0.007,10.335366 8.01153,-0.05019 -1.15665,4.862301 c -6.12074,-0.04403 -12.21438,0.212777 -18.33039,0.635051 z"
         inkscape:connector-curvature="0" />
      <path
         id="path143"
         style="fill:#000000;fill-rule:evenodd;stroke-width:0.26458332"
         d="m 55.370326,70.325606 0.04442,-47.485643 18.775892,-0.01773 1.189752,7.830053 -8.099134,0.180207 2.65e-4,9.898856 5.495316,0.01535 1.125458,7.764172 -6.639666,-0.0056 0.02048,7.381689 7.222887,-1.09175 -0.573775,8.836078 C 67.6716,65.61474 61.462014,67.82753 55.370274,70.325487 Z"
         inkscape:connector-curvature="0" />
      <path
         id="path145"
         style="fill:#000000;fill-rule:evenodd;stroke-width:0.26458332"
         d="m 91.672535,29.484365 -3.135683,0.063 0.01797,10.773516 3.135974,-0.154385 z m 8.506835,4.860713 c 0,1.629595 -0.252391,3.189552 -0.720915,4.671695 -0.467571,1.479312 -1.090797,2.799794 -1.892353,3.946049 -0.801899,1.146572 -1.752176,2.086768 -2.829745,2.813367 -1.0659,0.719005 -2.181595,1.132708 -3.370077,1.212427 l -2.883614,0.194072 -0.100833,12.284629 -0.07781,0.02011 -0.105886,0.02773 -0.735066,0.193437 -0.1837,0.04852 -0.04977,0.01323 c -0.656643,0.173937 -1.312625,0.349752 -1.967997,0.528717 l -0.178012,0.04852 h -0.0054 l -0.915617,0.251725 -0.150284,0.04159 -0.03278,0.0087 -0.914983,0.255217 -0.122555,0.03434 -0.06019,0.01693 -1.008883,0.285776 -0.0876,0.02487 c -0.669529,0.190923 -1.338131,0.384387 -2.006733,0.580364 l -0.04032,0.01191 -1.052698,0.310965 -0.01259,0.0037 -1.064339,0.318876 -0.01482,0.0045 -0.908685,0.276013 0.01008,-39.9524 h 14.725254 c 1.171469,0 2.284015,0.343112 3.334173,0.989357 3.578693,2.20434 5.424748,6.439949 5.424748,10.53345 z"
         inkscape:connector-curvature="0" />
      <path
         id="path147"
         style="fill:#000000;fill-rule:evenodd;stroke-width:0.26458332"
         d="m 116.41761,28.703579 -3.11772,0.04442 0.018,8.85563 3.11772,-0.112474 z m 8.5248,4.028943 c 0.009,1.34665 -0.2363,2.631228 -0.70295,3.849635 -0.47008,1.227851 -1.10908,2.315527 -1.89235,3.243738 -0.80251,0.950913 -1.72884,1.715929 -2.77553,2.300394 -1.06151,0.593301 -2.19959,0.919718 -3.37011,0.976444 l -2.99482,0.146183 0.0479,10.745178 c -3.87014,0.706384 -7.7289,1.472988 -11.57255,2.305102 l 0.009,-33.467753 14.49239,-0.009 c 1.17147,0 2.27267,0.272864 3.35214,0.81952 1.04606,0.529643 1.99318,1.2455 2.7935,2.154502 0.78517,0.89199 1.42414,1.953498 1.89235,3.153966 0.46852,1.200441 0.71209,2.463588 0.72091,3.782218 z"
         inkscape:connector-curvature="0" />
      <path
         id="path149"
         style="fill:#000000;fill-rule:evenodd;stroke-width:0.26458332"
         d="m 126.45921,51.813424 0.009,-28.978514 18.44287,-0.0127 1.22536,5.193453 -8.10101,0.07406 -0.006,7.101575 5.45751,-0.112818 1.20737,5.176467 -6.67716,0.185578 -0.009,3.666887 8.06289,-0.09737 -1.32869,5.474519 -0.42534,0.0359 -0.24199,0.02355 c -5.88002,0.648731 -11.75657,1.398614 -17.61704,2.269199 z"
         inkscape:connector-curvature="0" />
      <path
         id="path151"
         style="fill:#000000;fill-rule:evenodd;stroke-width:0.26458332"
         d="m 168.88687,48.747381 0.0485,-12.903147 -0.035,-13.01877 h 11.60598 l -0.0366,13.121798 0.0416,13.432472 c -1.58075,-0.143668 -3.16402,-0.262466 -4.74919,-0.353191 -2.28967,-0.130758 -4.58187,-0.223388 -6.87535,-0.279162 z"
         inkscape:connector-curvature="0" />
      <path
         id="path153"
         style="fill:#000000;fill-rule:evenodd;stroke-width:0.26458332"
         d="m 199.26654,52.073986 -10.6226,-12.199249 -0.13801,10.430086 c -2.12016,-0.294296 -4.24537,-0.553297 -6.37468,-0.769435 L 182.09185,36.33104 V 22.822315 h 5.9115 l 5.82145,5.387869 5.83906,5.618798 v -5.49783 -5.508837 l 6.5968,0.0029 v 31.01959 c -2.31267,-0.646854 -4.64835,-1.256533 -6.99412,-1.770751 z"
         inkscape:connector-curvature="0" />
    </g>
  </g>
</svg>
