<?xml version="1.0" encoding="UTF-8" standalone="no"?>
<!-- Created with Inkscape (http://www.inkscape.org/) -->

<svg
   xmlns:dc="http://purl.org/dc/elements/1.1/"
   xmlns:cc="http://creativecommons.org/ns#"
   xmlns:rdf="http://www.w3.org/1999/02/22-rdf-syntax-ns#"
   xmlns:svg="http://www.w3.org/2000/svg"
   xmlns="http://www.w3.org/2000/svg"
   xmlns:sodipodi="http://sodipodi.sourceforge.net/DTD/sodipodi-0.dtd"
   xmlns:inkscape="http://www.inkscape.org/namespaces/inkscape"
   width="210mm"
   height="162mm"
   viewBox="0 0 744.09449 574.01575"
   id="svg5779"
   version="1.1"
   inkscape:version="0.91 r13725"
   sodipodi:docname="guitarras.svg">
  <defs
     id="defs5781" />
  <sodipodi:namedview
     id="base"
     pagecolor="#ffffff"
     bordercolor="#666666"
     borderopacity="1.0"
     inkscape:pageopacity="0.0"
     inkscape:pageshadow="2"
     inkscape:zoom="0.35"
     inkscape:cx="-213.57143"
     inkscape:cy="520"
     inkscape:document-units="px"
     inkscape:current-layer="layer1"
     showgrid="false"
     inkscape:window-width="1600"
     inkscape:window-height="870"
     inkscape:window-x="0"
     inkscape:window-y="0"
     inkscape:window-maximized="1" />
  <metadata
     id="metadata5784">
    <rdf:RDF>
      <cc:Work
         rdf:about="">
        <dc:format>image/svg+xml</dc:format>
        <dc:type
           rdf:resource="http://purl.org/dc/dcmitype/StillImage" />
        <dc:title></dc:title>
      </cc:Work>
    </rdf:RDF>
  </metadata>
  <g
     inkscape:label="Capa 1"
     inkscape:groupmode="layer"
     id="layer1"
     transform="translate(0,-478.34645)">
    <path
       inkscape:connector-curvature="0"
       id="path401"
       style="fill:#cccccc;fill-rule:evenodd"
       d="m 383.77469,861.29168 c 8.85978,-7.95159 14.53617,-18.87642 16.38579,-30.99788 3.78916,-24.82926 -8.66688,-49.43092 -31.13956,-63.1143 C 245.78682,706.97179 149.75072,869.04965 74.344409,844.44889 63.484606,839.95533 53.352992,832.04062 48.593881,821.32395 l 2.305538,0.5885 0.09827,0.0254 c 9.253211,2.62141 19.459115,3.85274 28.756464,1.16921 6.918792,-1.99711 12.392287,-6.31139 15.052747,-13.06707 2.105553,-5.34453 2.104827,-11.47393 0.701851,-17.29453 -2.987046,-12.39156 -15.756414,-22.3301 -27.870613,-24.12832 -7.336743,-1.08838 -14.206311,0.66407 -19.803502,4.92749 -7.090259,5.40175 -11.148608,13.98508 -13.455236,22.61945 -0.575249,2.15332 -0.898566,4.40382 -1.043695,6.6941 -6.573134,-3.28711 -13.160254,-7.42738 -19.735932,-11.948 -12.0132077,-8.26164 -14.8238817,-4.65939 -4.6134363,5.87855 7.0682813,7.29242 15.1599133,13.6287 24.9504103,18.56291 3.609339,19.1249 18.837367,33.43747 36.499895,40.7457 30.911238,12.78826 60.262388,-1.51596 86.034898,-14.57776 51.73246,-21.43626 139.63697,-99.76241 206.72152,-63.66757 17.6974,10.7757 27.48463,29.88825 24.49631,49.46834 -1.45038,9.50423 -5.89217,18.08393 -12.86455,24.29887 l -0.12551,0.11262 -0.11843,0.11988 c -6.3815,6.42492 -13.89116,10.92919 -22.36551,14.30803 -7.49586,2.98831 -16.87948,3.37539 -25.13441,2.12117 -18.26303,-2.77471 -35.31016,-13.63397 -32.68131,-34.09609 0.58324,-4.53878 3.0488,-8.25456 6.81653,-10.57953 4.55604,-2.81086 10.52323,-3.2457 15.80873,-0.93817 7.41376,3.23789 11.6374,10.77298 13.77328,18.12335 l 1.80222,6.20114 c 6.78638,-13.40202 1.35139,-26.2188 -11.59072,-33.68541 -9.11262,-3.97879 -19.19247,-5.50165 -27.05959,-0.64736 -39.64043,25.46463 0.93325,89.92995 63.78272,65.32611 9.8637,-3.93229 18.6036,-9.23886 26.04188,-16.69167 z M 46.732994,808.23671 c -0.291166,-0.0854 -0.583241,-0.17074 -0.874589,-0.26156 -0.0554,-2.62631 0.110436,-5.25698 0.724011,-7.55525 2.551295,-9.55165 8.418218,-21.04392 20.293926,-19.28111 6.566414,0.97394 14.739965,6.71644 16.386336,13.54587 0.784497,3.25351 0.941614,6.82743 -0.242124,9.833 -4.912776,12.47384 -25.871499,6.20223 -36.259042,3.55194 l -0.02852,0.16711 z" />
    <path
       inkscape:connector-curvature="0"
       id="path403"
       style="fill:#cccccc;fill-rule:evenodd"
       d="m 359.08239,861.40811 c -8.8596,-8.01189 -14.53617,-18.97577 -16.38561,-31.10959 -3.78916,-24.85523 8.6667,-49.37189 31.13938,-62.90178 123.23428,-59.36582 219.27019,103.36794 294.67651,79.28231 10.85998,-4.41927 20.9916,-12.26478 25.75053,-22.94894 l -2.30536,0.57253 -0.0985,0.0254 c -9.25321,2.55801 -19.45911,3.71977 -28.75646,0.97267 -6.91879,-2.04452 -12.39229,-6.39604 -15.05256,-13.16988 -2.10556,-5.35907 -2.10501,-11.48827 -0.70186,-17.29925 2.98705,-12.3714 15.75624,-22.22257 27.87044,-23.93796 7.33692,-1.03843 14.20649,0.76088 19.8035,5.06263 7.09026,5.45024 11.14861,14.06118 13.45541,22.71135 0.57507,2.15732 0.89857,4.41 1.04352,6.70119 6.57331,-3.24225 13.16025,-7.33729 19.73593,-11.81304 12.01339,-8.17955 14.82388,-4.55822 4.61344,5.90997 -7.06828,7.24411 -15.15992,13.52517 -24.95023,18.39253 -3.60952,19.1002 -18.83755,33.30869 -36.50008,40.49631 -30.91124,12.57719 -60.26239,-1.92773 -86.0349,-15.16536 -51.73246,-21.78972 -139.63696,-100.7162 -206.72151,-65.07963 -17.69741,10.65473 -27.48463,29.70044 -24.49632,49.30087 1.45039,9.51404 5.89217,18.12425 12.86455,24.38679 l 0.12551,0.11261 0.11861,0.11988 c 6.38151,6.4687 13.89099,11.02401 22.36552,14.46097 7.49567,3.03936 16.8793,3.49055 25.13441,2.29264 18.26284,-2.64992 35.31016,-13.39257 32.68112,-33.87285 -0.58324,-4.54278 -3.0488,-8.27527 -6.81653,-10.62604 -4.55604,-2.84191 -10.52322,-3.31763 -15.80872,-1.04624 -7.41376,3.1874 -11.6374,10.69361 -13.77329,18.02944 l -1.80221,6.18879 c -6.7862,-13.44852 -1.35121,-26.22806 11.59089,-33.60639 9.11244,-3.91631 19.19229,-5.37051 27.0596,-0.46246 39.64024,25.73546 -0.93344,89.9236 -63.78291,64.89054 -9.86369,-3.99968 -18.60341,-9.366 -26.04187,-16.86967 z m 337.04169,-50.7527 c 0.29135,-0.0836 0.58325,-0.16711 0.87459,-0.25557 0.0554,-2.62576 -0.11043,-5.25771 -0.72401,-7.55997 -2.55129,-9.56927 -8.41822,-21.10149 -20.29392,-19.41989 -6.56623,0.92909 -14.73997,6.61582 -16.38634,13.43399 -0.7845,3.24806 -0.94143,6.82107 0.24212,9.83445 4.91278,12.50763 25.8715,6.37915 36.25923,3.7997 l 0.0283,0.16711 z" />
    <path
       inkscape:connector-curvature="0"
       id="path410"
       style="fill:#cccccc;fill-rule:evenodd"
       d="m 371.78437,719.14175 c 2.31843,-4.92804 2.76962,-10.63276 1.39771,-16.23194 -2.81013,-11.46939 -12.41772,-20.17314 -24.30469,-22.46288 -62.55376,-6.07744 -74.22276,80.49438 -110.32759,82.12295 -5.36833,-0.17982 -11.03709,-1.9755 -14.94159,-5.87637 l 1.07476,-0.1217 0.0458,0 c 4.36005,-0.37344 8.87449,-1.51068 12.31182,-4.2091 2.55783,-2.00802 4.09649,-4.79108 4.01766,-8.17919 -0.0619,-2.68062 -1.14959,-5.35833 -2.77271,-7.67095 -3.45585,-4.9235 -10.59388,-7.16964 -16.01216,-5.96701 -3.2813,0.72873 -5.86202,2.62177 -7.46153,5.4032 -2.02599,3.52361 -2.21163,7.9396 -1.65073,12.0904 0.14004,1.03516 0.40306,2.07141 0.74835,3.09585 -3.34996,-0.35728 -6.85703,-1.08493 -10.42696,-1.98059 -6.52245,-1.63765 -7.06628,0.39743 -0.89893,3.32544 4.26887,2.02582 8.79894,3.46603 13.79545,4.01476 4.91223,7.76287 13.8612,11.51661 22.59238,11.81032 15.28016,0.51367 25.09681,-10.55302 33.62783,-20.48955 17.9724,-17.85598 41.07736,-66.50331 75.71855,-61.74456 9.36092,1.80312 16.87149,8.54681 19.0873,17.5915 1.07567,4.39021 0.72819,8.8676 -1.104,12.72723 l -0.0331,0.069 -0.0287,0.0727 c -1.54629,3.85437 -3.90814,7.05466 -6.87575,9.92182 -2.62486,2.53586 -6.50611,4.24508 -10.20336,5.05191 -8.17954,1.78533 -17.28163,-0.16165 -19.80532,-9.53202 -0.55963,-2.07867 -0.18109,-4.10667 0.99229,-5.74087 1.41915,-1.97568 3.85365,-3.14525 6.48795,-3.00448 3.69507,0.19762 6.80963,2.79651 9.01272,5.65713 l 1.85871,2.41343 c 0.4788,-6.96892 -4.08269,-11.67645 -10.85508,-12.81423 -4.54151,-0.24267 -9.0545,0.74635 -11.5048,4.15843 -12.16779,17.63129 16.34746,39.13583 38.43743,18.0714 3.45404,-3.33688 6.19151,-7.08972 8.00027,-11.56656 z M 220.5031,751.28123 c -0.13786,0.0182 -0.27609,0.02 -0.41468,0.0291 -0.48915,-1.13814 -0.88621,-2.3148 -1.03552,-3.41952 -0.62084,-4.59183 -0.18999,-10.57554 5.12148,-11.75456 2.93673,-0.65208 7.39596,0.51513 9.30062,3.22863 0.90728,1.29254 1.6075,2.82829 1.64255,4.33553 0.14495,6.25599 -9.78958,6.95602 -14.63225,7.50294 l 0.0182,0.0781 z" />
    <path
       inkscape:connector-curvature="0"
       id="path412"
       style="fill:#cccccc;fill-rule:evenodd"
       d="m 373.87139,719.14175 c -2.31843,-4.92804 -2.76962,-10.63276 -1.3977,-16.23194 2.81012,-11.46939 12.41771,-20.17314 24.30468,-22.46288 62.55376,-6.07744 74.22295,80.49438 110.3276,82.12295 5.3685,-0.17982 11.03726,-1.9755 14.94158,-5.87637 l -1.07476,-0.1217 -0.0458,0 c -4.36005,-0.37344 -8.87431,-1.51068 -12.31164,-4.2091 -2.55801,-2.00802 -4.09649,-4.79108 -4.01784,-8.17919 0.0619,-2.68062 1.14959,-5.35833 2.77289,-7.67095 3.45567,-4.9235 10.59389,-7.16964 16.01198,-5.96701 3.2813,0.72873 5.86202,2.62177 7.46153,5.4032 2.02618,3.52361 2.21163,7.9396 1.65073,12.0904 -0.14004,1.03516 -0.40306,2.07141 -0.74835,3.09585 3.34996,-0.35728 6.85722,-1.08493 10.42714,-1.98059 6.52228,-1.63765 7.06628,0.39743 0.89893,3.32544 -4.26905,2.02582 -8.79912,3.46603 -13.79545,4.01476 -4.91241,7.76287 -13.86138,11.51661 -22.59256,11.81032 -15.27997,0.51367 -25.09681,-10.55302 -33.62782,-20.48955 -17.97241,-17.85598 -41.07737,-66.50331 -75.71856,-61.74456 -9.36092,1.80312 -16.87131,8.54681 -19.0873,17.5915 -1.07566,4.39021 -0.72819,8.8676 1.10418,12.72723 l 0.0329,0.069 0.0287,0.0727 c 1.54629,3.85437 3.90814,7.05466 6.87575,9.92182 2.62504,2.53586 6.50611,4.24508 10.20336,5.05191 8.17955,1.78533 17.28163,-0.16165 19.80532,-9.53202 0.55981,-2.07867 0.18109,-4.10667 -0.99229,-5.74087 -1.41914,-1.97568 -3.85365,-3.14525 -6.48777,-3.00448 -3.69507,0.19762 -6.80981,2.79651 -9.0129,5.65713 l -1.85871,2.41343 c -0.4788,-6.96892 4.08269,-11.67645 10.85508,-12.81423 4.54151,-0.24267 9.0545,0.74635 11.50481,4.15843 12.16778,17.63129 -16.34747,39.13583 -38.43726,18.0714 -3.45422,-3.33688 -6.19151,-7.08972 -8.00045,-11.56656 z m 151.28145,32.13948 c 0.13768,0.0182 0.27591,0.02 0.4145,0.0291 0.48933,-1.13814 0.88621,-2.3148 1.0357,-3.41952 0.62066,-4.59183 0.19,-10.57554 -5.12166,-11.75456 -2.93655,-0.65208 -7.39595,0.51513 -9.30062,3.22863 -0.90728,1.29254 -1.6075,2.82829 -1.64237,4.33553 -0.14513,6.25599 9.78941,6.95602 14.63207,7.50294 l -0.0182,0.0781 z" />
    <path
       inkscape:connector-curvature="0"
       id="path432"
       style="fill:#cccccc;fill-rule:evenodd"
       d="m 433.07846,546.81239 -28.12599,11.11029 101.97059,38.43689 -0.004,-0.0291 c 32.98992,2.34405 32.36417,-17.1781 11.35295,-33.46944 -6.04638,-4.68772 -7.34873,-6.25563 -7.09262,-9.097 1.42659,-15.84305 43.14823,-12.2121 59.18419,12.88217 8.00608,15.03095 22.29758,23.1916 42.35683,25.40251 17.85797,1.96987 29.10248,-3.93157 45.88134,-5.90743 9.68587,-1.1416 19.48672,-0.0599 28.82748,3.56302 36.07977,13.9947 51.6609,60.60605 34.7945,104.0894 -16.86696,43.48353 -59.80376,67.39697 -95.88352,53.40191 -10.4246,-4.04346 -19.13308,-10.81476 -25.84789,-19.44186 -1.00301,-0.53856 -1.99984,-1.09202 -2.98995,-1.66381 -15.64562,-24.79766 -41.17709,-39.97301 -69.4938,-30.97609 -11.51189,3.66074 -22.20459,1.76698 -31.7021,-7.02887 -14.76067,-14.71617 -3.96898,-20.19511 3.7007,-18.9171 21.28295,6.57858 32.40958,-22.72843 16.27954,-40.2985 l -145.4683,-57.46386 -145.46956,57.46407 c -16.12968,17.56989 -5.00305,46.8769 16.27954,40.29814 7.67041,-1.27728 18.46174,4.20075 3.70161,18.91765 -9.49788,8.79584 -20.19076,10.6887 -31.70264,7.0285 -28.31708,-8.99692 -53.84837,6.17843 -69.49399,30.97572 -0.99029,0.57216 -1.9864,1.1258 -2.98959,1.66418 -6.71463,8.6271 -15.4231,15.39804 -25.8477,19.44222 -36.079763,13.99488 -79.017108,-9.91874 -95.883878,-53.40227 -16.8664077,-43.48335 -1.28582,-90.09452 34.794854,-104.09031 9.34076,-3.62151 19.141611,-4.70371 28.827303,-3.56229 16.778676,1.97568 28.023191,7.87748 45.881521,5.90761 20.05925,-2.21054 34.3502,-10.3712 42.35665,-25.40233 16.03668,-25.09427 57.75723,-28.72504 59.18364,-12.88198 0.25647,2.841 -1.04624,4.40891 -7.09208,9.097 -21.0114,16.2917 -21.63751,35.81366 11.35313,33.46962 l -0.004,0.0272 101.97113,-38.43688 -28.12672,-11.11065 -1.42532,3.67436 -0.4174,1.07621 -8.95496,2.82521 -0.34221,0.88258 -0.94761,-0.47571 -0.15403,0.0472 0.0409,-0.10535 -5.94376,-2.98341 -1.3601,3.50726 c 1.95025,1.46964 2.89949,3.63549 2.1891,5.46623 -0.92036,2.37274 -4.28194,3.28312 -7.50585,2.03253 -3.22481,-1.25112 -5.09332,-4.19021 -4.17296,-6.56241 0.66117,-1.70577 2.58272,-2.65538 4.80761,-2.59144 l 1.58607,-4.08923 -14.64061,-7.34982 -1.35466,3.492 c 1.95025,1.46982 2.89968,3.63568 2.18983,5.46605 -0.92036,2.37329 -4.28194,3.2833 -7.50621,2.03272 -3.22445,-1.25095 -5.09332,-4.18986 -4.17278,-6.56279 0.66134,-1.70504 2.5829,-2.65501 4.80797,-2.59107 l 1.58007,-4.07451 -14.64079,-7.34982 -1.34884,3.47747 c 1.95043,1.47 2.89967,3.63549 2.18965,5.46622 -0.92036,2.37257 -4.28195,3.28276 -7.50585,2.03236 -3.22481,-1.25095 -5.09369,-4.18968 -4.17333,-6.5626 0.66153,-1.70468 2.58308,-2.65465 4.80816,-2.59126 l 1.57426,-4.05907 -14.42828,-7.24356 0.41759,-1.07603 12.01702,-30.98263 0.41795,-1.07657 15.99673,4.50972 1.18065,-3.0439 c -1.95008,-1.47 -2.8995,-3.63567 -2.18929,-5.46622 0.92036,-2.37257 4.28194,-3.28312 7.50621,-2.03236 3.22444,1.25113 5.09332,4.18986 4.17296,6.56242 -0.66153,1.70522 -2.58308,2.65519 -4.80815,2.59107 l -1.0635,2.7422 15.76732,4.44488 1.18682,-3.05898 c -1.95025,-1.47054 -2.89931,-3.63586 -2.18929,-5.46623 0.92037,-2.37292 4.28213,-3.28311 7.50603,-2.03253 3.22427,1.25076 5.09297,4.18985 4.17297,6.56242 -0.66153,1.7054 -2.58308,2.65501 -4.80761,2.59107 l -1.06985,2.75727 15.76749,4.44488 1.19246,-3.07442 c -1.94989,-1.47 -2.89931,-3.63531 -2.18929,-5.46623 0.92018,-2.37219 4.28195,-3.28311 7.50603,-2.03199 3.22481,1.25059 5.09296,4.1895 4.17296,6.56242 -0.66134,1.70486 -2.58308,2.65483 -4.80797,2.59108 l -1.07512,2.77198 5.94322,1.67562 0.0409,-0.10535 0.0812,0.13986 1.02044,0.28808 -0.34239,0.88258 4.70753,8.12451 -0.41759,1.07675 -2.05651,5.30148 53.72431,20.25088 53.72341,-20.25051 -2.05688,-5.30185 -0.41813,-1.07712 4.70789,-8.12469 -0.34257,-0.88203 1.02062,-0.28808 0.0812,-0.13986 0.0412,0.10535 5.94321,-1.67562 -1.07494,-2.77198 c -2.22507,0.0636 -4.14644,-0.88622 -4.80797,-2.59071 -0.92036,-2.37348 0.94797,-5.3122 4.17369,-6.56315 3.22336,-1.25076 6.58513,-0.34021 7.50549,2.03235 0.70966,1.83128 -0.23958,3.99623 -2.18947,5.46587 l 1.19191,3.07478 15.76786,-4.44433 -1.06931,-2.75728 c -2.22507,0.0636 -4.14735,-0.88621 -4.80852,-2.59143 -0.92018,-2.37275 0.9487,-5.31148 4.17333,-6.56242 3.22408,-1.25076 6.58585,-0.34021 7.50585,2.03235 0.71039,1.83037 -0.23867,3.99587 -2.18893,5.46623 l 1.18647,3.05898 15.76785,-4.44488 -1.06422,-2.74183 c -2.22452,0.0636 -4.14608,-0.88658 -4.80797,-2.59162 -0.92,-2.37293 0.94815,-5.31148 4.17333,-6.56224 3.22426,-1.25112 6.58585,-0.34075 7.50566,2.03199 0.71039,1.83164 -0.23867,3.99659 -2.18965,5.46623 l 1.18065,3.04444 15.99745,-4.5099 0.41777,1.07657 12.01739,30.98227 0.41686,1.07602 -14.4281,7.24447 1.57517,4.05872 c 2.22453,-0.0636 4.14572,0.88639 4.80761,2.59107 0.92,2.37329 -0.94852,5.31165 -4.17296,6.5626 -3.22409,1.2504 -6.58585,0.34039 -7.50603,-2.03236 -0.71003,-1.83037 0.23903,-3.99604 2.18965,-5.46659 l -1.34957,-3.47765 -14.64043,7.35037 1.58007,4.07469 c 2.22526,-0.0636 4.14645,0.88549 4.80797,2.59053 0.92037,2.37293 -0.9476,5.31202 -4.17278,6.56315 -3.22408,1.25058 -6.58585,0.34057 -7.50585,-2.03272 -0.70984,-1.83037 0.23922,-3.99587 2.18893,-5.46587 l -1.35448,-3.49182 -14.64043,7.34892 1.58662,4.08977 c 2.22452,-0.0636 4.14553,0.88567 4.80706,2.59162 0.92073,2.37256 -0.94724,5.31165 -4.17242,6.56223 -3.22426,1.25059 -6.58621,0.34021 -7.50621,-2.03289 -0.71002,-1.83038 0.23922,-3.99623 2.18929,-5.46587 l -1.36011,-3.50726 -5.94358,2.98396 0.0405,0.10535 -0.15385,-0.049 -0.94761,0.47589 -0.34238,-0.8824 -8.95515,-2.82593 -0.41776,-1.07585 -1.42441,-3.674 z" />
    <path
       inkscape:connector-curvature="0"
       id="path434"
       style="fill:#cccccc;fill-rule:evenodd"
       d="m 284.28783,899.28792 c 2.51969,0.27046 5.01068,0.60231 7.46824,0.99283 46.89108,7.45645 81.86012,36.398 81.86012,70.95255 0,28.37084 -23.57341,52.9576 -57.96339,64.9759 -7.16182,2.5024 -40.61837,10.895 -38.23291,6.9804 1.1643,-1.9109 2.3564,-2.2086 9.68315,-4.3047 7.73144,-2.2116 14.89454,-4.3317 21.90524,-7.659 27.66936,-13.1319 45.81051,-35.1054 45.81051,-59.9926 0,-34.77524 -35.42151,-63.85557 -82.7645,-71.08206 15.80746,3.97825 27.14806,14.78574 27.14806,27.49317 0,16.08355 -18.16495,29.12683 -40.5637,29.12683 -22.39875,0 -40.56369,-13.04328 -40.56369,-29.12683 0,-9.65154 6.54135,-18.20853 16.61338,-23.50874 1.86489,-0.9814 3.85165,-1.85126 5.93958,-2.59562 11.9322,-4.25343 30.88273,-3.62314 43.65991,-2.25213 z" />
    <path
       inkscape:connector-curvature="0"
       id="path436"
       style="fill:#cccccc;fill-rule:evenodd"
       d="m 460.87787,899.28792 c -2.51968,0.27046 -5.01068,0.60231 -7.46824,0.99283 -46.89108,7.45645 -81.86012,36.398 -81.86012,70.95255 0,28.37084 23.57341,52.9576 57.96357,64.9759 7.16165,2.5024 40.61819,10.895 38.23291,6.9804 -1.16448,-1.9109 -2.35658,-2.2086 -9.68333,-4.3047 -7.73144,-2.2116 -14.89454,-4.3317 -21.90524,-7.659 -27.66936,-13.1319 -45.81051,-35.1054 -45.81051,-59.9926 0,-34.77524 35.42169,-63.85557 82.7645,-71.08206 -15.80745,3.97825 -27.14805,14.78574 -27.14805,27.49317 0,16.08355 18.16494,29.12683 40.56369,29.12683 22.39875,0 40.56369,-13.04328 40.56369,-29.12683 0,-9.65154 -6.54135,-18.20853 -16.61338,-23.50874 -1.86488,-0.9814 -3.85165,-1.85126 -5.93958,-2.59562 -11.9322,-4.25343 -30.88254,-3.62314 -43.65991,-2.25213 z" />
  </g>
</svg>
